<?xml version="1.0" encoding="UTF-8"?>
<svg width="662px" height="834px" viewBox="0 0 662 834" version="1.1" xmlns="http://www.w3.org/2000/svg" xmlns:xlink="http://www.w3.org/1999/xlink">
    <!-- Generator: Sketch 53.1 (72631) - https://sketchapp.com -->
    <title>Asset 1</title>
    <desc>Created with Sketch.</desc>
    <g id="Page-1" stroke="none" stroke-width="1" fill="none" fill-rule="evenodd">
        <g id="Asset-1" fill="#E60073" fill-rule="nonzero">
            <path d="M20.3399475,656.131726 L6.40536039,652.195367 C5.12259534,651.825785 3.74537621,651.984732 2.58040944,652.63681 C1.41544266,653.288889 0.559465171,654.379951 0.203102993,655.667017 C-0.177053093,656.94912 -0.0192220065,658.330805 0.64026651,659.494034 C1.29064377,660.662358 2.38375763,661.519534 3.67308841,661.872251 L17.6076755,665.80861 C18.0515755,665.937377 18.5116332,666.001816 18.9738115,665.999961 C19.8327182,665.996039 20.6773793,665.780078 21.4328563,665.371237 C22.6047582,664.725404 23.4630873,663.629769 23.8099329,662.33696 C24.5632395,659.664903 23.0101216,656.887525 20.3399475,656.131726 L20.3399475,656.131726 Z" id="Path"></path>
            <path d="M102.338547,649.724238 L89.5740737,657.209385 C87.1341368,658.649388 86.2800082,661.836134 87.6594028,664.353004 C88.3436653,665.554112 89.4592474,666.432693 90.7672744,666.800619 C91.1987082,666.936507 91.6479163,667.003697 92.0992194,666.999843 C92.9871089,666.993178 93.8577753,666.747849 94.6243652,666.288327 L107.416587,658.831641 C108.595806,658.139354 109.455342,656.991244 109.802988,655.64405 C110.376191,653.593986 109.672892,651.392648 108.02793,650.08808 C106.382967,648.783513 104.12877,648.639354 102.338547,649.724238 L102.338547,649.724238 Z" id="Path"></path>
            <path d="M189.633911,652.153085 L175.66947,656.179288 C173.242615,656.862653 171.697148,659.217676 172.050052,661.694652 C172.402956,664.171627 174.545866,666.009964 177.068657,665.999959 C177.550768,666.001861 178.030838,665.93778 178.49528,665.80953 L192.459721,661.783327 C195.067235,660.973434 196.55153,658.253289 195.808722,655.645887 C195.065914,653.038486 192.365684,651.490458 189.716216,652.153085 L189.633911,652.153085 Z" id="Path"></path>
            <path d="M266.849419,650.032699 C265.818925,649.220776 264.518542,648.865751 263.234733,649.045832 C261.950924,649.225914 260.789013,649.926328 260.004959,650.99278 C259.207541,652.049419 258.86251,653.397186 259.049918,654.723378 C259.216802,656.055481 259.895785,657.26185 260.933471,658.069944 L272.155202,666.957545 C273.004788,667.639224 274.051085,668.006287 275.12644,667.999918 C276.535357,667.997593 277.874587,667.365913 278.799844,666.267267 C279.725102,665.168622 280.146134,663.710178 279.954703,662.266867 C279.799326,660.944936 279.128519,659.745977 278.097679,658.947732 L266.849419,650.032699 Z" id="Path"></path>
            <path d="M345.333137,654.172592 C344.338338,656.719905 345.646078,659.569108 348.262837,660.555595 L362.082179,665.65127 C362.66001,665.884925 363.280347,666.003491 363.906332,665.999922 C366.008775,665.987576 367.891574,664.73418 368.660185,662.835239 C369.145729,661.611933 369.10971,660.251432 368.560075,659.053931 C368.010441,657.85643 366.992364,656.920349 365.730485,656.452236 L351.911144,651.329741 C350.650465,650.858591 349.2484,650.893543 348.014315,651.426883 C346.78023,651.960224 345.815552,652.94812 345.333137,654.172592 L345.333137,654.172592 Z" id="Path"></path>
            <path d="M444.635767,647.080923 C443.258279,646.860324 441.844959,647.17111 440.710426,647.944097 C439.582769,648.702659 438.824216,649.85944 438.605533,651.154029 L436.073972,665.261543 C435.839483,666.559364 436.167718,667.891982 436.984196,668.95701 C437.776438,670.038829 438.998143,670.769011 440.369092,670.980076 C440.662351,671.006641 440.957613,671.006641 441.250872,670.980076 C443.806283,670.97299 445.982692,669.216955 446.399326,666.826047 L448.930887,652.718533 C449.39435,650.018088 447.478482,647.467296 444.635767,647 L444.635767,647.080923 Z" id="Path"></path>
            <path d="M528.482491,649.458388 C527.772299,648.286664 526.628038,647.455991 525.308532,647.154258 C523.294131,646.6422 521.176444,647.430142 519.961047,649.143932 C518.74565,650.857722 518.677359,653.152152 519.788603,654.93772 L527.516504,667.554234 C528.226696,668.725957 529.370956,669.556631 530.690463,669.858364 C531.06847,669.960332 531.458692,670.007628 531.849648,669.998859 C532.825787,670.020025 533.786199,669.746242 534.609612,669.212083 C536.983461,667.703824 537.711649,664.524744 536.237991,662.103001 L528.482491,649.458388 Z" id="Path"></path>
            <path d="M621.19252,653.829164 L606.602595,653.027659 C604.739443,652.832405 602.920481,653.681613 601.871052,655.236645 C600.821624,656.791677 600.71243,658.799591 601.587014,660.459694 C602.461598,662.119796 604.177699,663.162056 606.050991,663.170851 L620.640916,663.999994 L620.916718,663.999994 C623.615161,664.003991 625.844823,661.891078 625.991474,659.190961 C626.070059,657.840869 625.602832,656.515939 624.695205,655.51509 C623.806712,654.496927 622.540972,653.887696 621.19252,653.829164 L621.19252,653.829164 Z" id="Path"></path>
            <path d="M46.4127624,593.094871 C43.58311,593.523897 41.6428895,596.011512 42.055232,598.681792 L44.5206768,612.824528 C44.9423543,615.2269 47.1519155,616.987095 49.738246,616.980981 C50.024293,617.00634 50.312238,617.00634 50.5982849,616.980981 C51.9761346,616.769396 53.2075851,616.049508 54.0200448,614.980668 C54.8325045,613.911828 55.1589599,612.582197 54.9271473,611.2861 L52.4617025,597.170354 C52.243752,595.868206 51.4819601,594.702112 50.3458772,593.931605 C49.2097943,593.161098 47.7936968,592.850119 46.4127624,593.067881 L46.4127624,593.094871 Z" id="Path"></path>
            <path d="M134.437832,593.001379 C131.835678,592.937214 129.65717,595.119341 129.518658,597.928724 L129.003561,612.682921 C128.954826,614.04168 129.407933,615.365625 130.263027,616.362992 C131.118122,617.360359 132.305023,617.94929 133.562168,618 L133.742452,618 C136.285512,617.987712 138.371396,615.818877 138.481342,613.072655 L138.996439,598.318458 C139.045174,596.959699 138.592067,595.635755 137.736973,594.638388 C136.881878,593.641021 135.694977,593.052089 134.437832,593.001379 L134.437832,593.001379 Z" id="Path"></path>
            <path d="M227.780302,601.468672 L213.69914,599.067372 C212.40671,598.845132 211.084873,599.177538 210.017615,599.993175 C207.82507,601.747074 207.346387,605.071128 208.942717,607.457456 C209.705452,608.605056 210.870137,609.367857 212.16741,609.569443 L226.2217,611.999674 L227.001001,611.999674 C229.601051,612.030393 231.778958,609.887788 231.984342,607.09711 C232.189726,604.306431 230.352402,601.821304 227.780302,601.41081 L227.780302,601.468672 Z" id="Path"></path>
            <path d="M314.071265,603.920647 L300.762907,597.632979 C299.105705,596.756326 297.062097,596.792581 295.442427,597.727368 C293.822758,598.662155 292.8887,600.344451 293.010632,602.107181 C293.132564,603.869911 294.290786,605.42829 296.026034,606.164379 L309.334392,612.478136 C310.060903,612.815835 310.861629,612.994371 311.674632,612.999935 C312.220549,613.002609 312.763318,612.923309 313.281786,612.765125 C314.62109,612.404522 315.74556,611.557543 316.398926,610.417216 C317.052292,609.27689 317.178884,607.940375 316.749853,606.712267 C316.306333,605.482364 315.338577,604.47377 314.071265,603.920647 L314.071265,603.920647 Z" id="Path"></path>
            <path d="M383.254877,602.327471 L392.999541,613.275648 C393.979861,614.371086 395.394103,614.999419 396.880654,614.999986 C398.126654,615.002915 399.32984,614.554536 400.259176,613.740945 C402.3803,611.908528 402.59243,608.740478 400.733845,606.652001 L390.98918,595.703824 C390.099213,594.694587 388.829771,594.082273 387.471049,594.006857 C386.109864,593.938832 384.772944,594.378934 383.729545,595.238527 C381.623129,597.078009 381.411816,600.233874 383.254877,602.327471 L383.254877,602.327471 Z" id="Path"></path>
            <path d="M479.304533,616.973005 L479.891969,616.973005 C482.410153,616.635208 484.219418,614.245115 483.978484,611.574597 L482.343878,597.376785 C482.205351,596.063818 481.569591,594.866107 480.581569,594.056765 C479.592604,593.253425 478.347785,592.885843 477.108031,593.031067 C474.589847,593.368864 472.780582,595.758957 473.021516,598.429475 L474.656122,612.627287 C474.928762,615.121588 476.928652,617.002863 479.304533,616.999997 L479.304533,616.973005 Z" id="Path"></path>
            <path d="M575.401963,600.028794 C574.865602,598.801413 573.8498,597.825139 572.572722,597.30965 C571.27427,596.846155 569.836281,596.904965 568.583493,597.472799 L555.003136,603.563681 C553.767083,604.09111 552.800076,605.069402 552.315357,606.282824 C551.841734,607.530389 551.903618,608.907742 552.487373,610.111426 C553.071128,611.315109 554.128857,612.246359 555.427522,612.700004 C555.996066,612.909132 556.601302,613.010696 557.209944,612.999109 C557.963459,613.008256 558.708996,612.850062 559.38846,612.536855 L572.997108,606.445973 C575.598097,605.267184 576.722466,602.292457 575.515133,599.784071 L575.401963,600.028794 Z" id="Path"></path>
            <path d="M638.333442,603.754766 C638.825686,604.952824 639.789461,605.920071 641.019169,606.45017 L654.589156,612.541781 C655.282405,612.840136 656.033683,612.996249 656.794278,613 C658.814746,612.99704 660.65271,611.884765 661.515503,610.142872 C662.721915,607.656387 661.598404,604.707631 658.999401,603.539134 L645.457685,597.474476 C644.209374,596.912733 642.778068,596.847075 641.478958,597.29196 C640.179848,597.736846 639.119472,598.65579 638.531338,599.846431 C637.899691,601.066657 637.828016,602.482204 638.333442,603.754766 L638.333442,603.754766 Z" id="Path"></path>
            <path d="M11.7316832,538.122436 C10.3987797,538.200971 9.15150778,538.815521 8.26544135,539.830306 C7.37937493,540.84509 6.92744554,542.176583 7.0095031,543.530602 L7.93756162,558.201986 C8.10978392,560.894264 10.3046937,562.991097 12.9599959,563 L13.287546,563 C14.6382958,562.908125 15.8961739,562.269027 16.778887,561.226133 C17.6616002,560.183239 18.0952189,558.823894 17.9824303,557.453163 L17.0543717,542.781779 C16.9772666,541.429692 16.3714986,540.165 15.3718537,539.269102 C14.3722087,538.373204 13.0616144,537.920421 11.7316832,538.011499 L11.7316832,538.122436 Z" id="Path"></path>
            <path d="M92.3456471,561.17546 L92.3456471,561.17546 C94.6748672,562.716702 97.7672188,562.035738 99.2896689,559.646323 L107.190544,547.045096 C108.297951,545.275848 108.266716,542.989679 107.111419,541.253598 C105.956121,539.517517 103.904534,538.673802 101.914181,539.116234 C100.610858,539.392789 99.4687415,540.198455 98.7428955,541.353306 L90.869359,553.841263 C90.1031227,555.009555 89.8276055,556.449995 90.1059161,557.832641 C90.3842266,559.215288 91.1925183,560.42167 92.3456471,561.17546 Z" id="Path"></path>
            <path d="M180.67841,561.752838 L180.67841,561.752838 C181.180019,561.914923 181.705014,561.998356 182.233655,562 C184.509428,561.996167 186.521558,560.56386 187.210438,558.457345 L191.763063,544.58881 C192.614235,541.928316 191.10052,539.098371 188.369802,538.244986 C187.049414,537.828004 185.611563,537.946849 184.38272,538.574535 C183.158775,539.198525 182.235089,540.263183 181.809497,541.540479 L177.285149,555.271701 C176.824226,556.567585 176.925282,557.989739 177.565128,559.211847 C178.204974,560.433954 179.328681,561.351098 180.67841,561.752838 Z" id="Path"></path>
            <path d="M279.799703,544.839032 C278.709281,544.099004 277.371582,543.833627 276.086504,544.102397 L262.067832,547.021655 C259.525295,547.489158 257.764942,549.860701 258.025546,552.467412 C258.286151,555.074122 260.480059,557.039228 263.0634,556.97987 C263.403711,557.00671 263.745564,557.00671 264.085875,556.97987 L278.050732,554.060612 C280.727231,553.486921 282.445597,550.830752 281.898468,548.112966 C281.669183,546.776832 280.910883,545.593934 279.799703,544.839032 L279.799703,544.839032 Z" id="Path"></path>
            <path d="M352.387877,561.723822 L352.387877,561.723822 C355.033304,562.628454 357.913335,561.239207 358.860782,558.601473 L363.708574,544.785766 C364.313773,543.073017 363.96214,541.166481 362.786132,539.784331 C361.610125,538.402181 359.788406,537.754399 358.0072,538.084999 C356.225994,538.415599 354.755909,539.674353 354.150711,541.387103 L349.302919,555.202809 C348.84029,556.464951 348.909905,557.861653 349.495728,559.071207 C350.061071,560.312439 351.104985,561.269894 352.387877,561.723822 L352.387877,561.723822 Z" id="Path"></path>
            <path d="M453.865054,548.273766 C454.176506,546.952613 453.943897,545.563291 453.218443,544.411705 C452.506301,543.254745 451.349867,542.432656 450.0135,542.133367 C448.676707,541.825559 447.270937,542.055447 446.105719,542.772413 L433.426515,550.52432 C431.018331,552.035758 430.280304,555.175853 431.767816,557.581611 C432.491232,558.740218 433.656798,559.561594 435.000873,559.859949 C435.388387,559.947374 435.78419,559.993942 436.181641,559.998872 C437.175956,560.019801 438.154251,559.749083 438.992995,559.220903 L451.644085,551.468996 C452.78449,550.737787 453.583601,549.588135 453.865054,548.273766 L453.865054,548.273766 Z" id="Path"></path>
            <path d="M528.304154,542.003327 C527.079149,540.407653 524.952848,539.670766 522.925148,540.139189 C520.897448,540.607612 519.371878,542.188126 519.065841,544.137489 C518.846944,545.408639 519.178869,546.709481 519.986881,547.747122 L528.722808,559.023931 C530.404576,561.170356 533.602509,561.640222 535.895758,560.077839 C538.183583,558.498308 538.68325,555.467688 537.01217,553.306484 L528.304154,542.003327 Z" id="Path"></path>
            <path d="M609.002638,543.293599 L609.394106,558.017732 C609.464811,560.791729 611.594173,563.001024 614.196114,563 L614.352701,563 C616.994906,562.909143 619.071331,560.557739 618.998122,557.739393 L618.606654,542.987426 C618.565106,541.624681 618.021176,540.334432 617.092978,539.396853 C616.173573,538.446444 614.927126,537.942898 613.648059,538.005158 L613.648059,539.257684 L613.648059,538.005158 C612.374257,538.048735 611.168945,538.630573 610.297617,539.62251 C609.42629,540.614447 608.960424,541.935112 609.002638,543.293599 Z" id="Path"></path>
            <path d="M43.0085702,507.999037 L43.6086705,507.999037 C44.9335819,507.847548 46.1417824,507.180519 46.9637768,506.146734 L55.9107269,494.979226 C56.7401454,493.955795 57.1202096,492.648901 56.9665739,491.348574 C56.8129381,490.048248 56.1383108,488.862048 55.0924083,488.053222 L55.0924083,488.053222 C52.9055949,486.371538 49.7493618,486.743324 48.027591,488.885417 L39.0806409,500.052925 C37.3656153,502.198057 37.7310849,505.303271 39.8989595,507.005773 C40.7928189,507.671001 41.8881292,508.020862 43.0085702,507.999037 L43.0085702,507.999037 Z" id="Path"></path>
            <path d="M136.054559,485.142292 C133.26025,484.491968 130.443833,486.131867 129.74746,488.814693 L126.155525,502.797018 C125.461037,505.478675 127.157596,508.194242 129.945441,508.86328 C130.352317,508.960611 130.770683,509.006337 131.189891,508.999295 C133.579998,509.006633 135.668012,507.447128 136.25254,505.218082 L139.844475,491.208554 C140.538963,488.526897 138.842404,485.81133 136.054559,485.142292 Z" id="Path"></path>
            <path d="M226.983398,487.977597 C225.898079,487.199324 224.535029,486.865517 223.193285,487.049408 C221.856466,487.232453 220.651332,487.919868 219.845813,488.958825 L211.020659,500.176652 C209.337385,502.332821 209.781901,505.386622 212.016602,507.018731 C212.892105,507.655382 213.96085,507.999985 215.059758,507.999959 C216.665845,508.006235 218.181858,507.28943 219.154187,506.064022 L227.979341,494.819676 C229.662615,492.663507 229.218099,489.609706 226.983398,487.977597 L226.983398,487.977597 Z" id="Path"></path>
            <path d="M312.708459,492.004563 L297.955616,492.44592 C296.589976,492.4758 295.295146,493.01879 294.36483,493.951726 C292.451584,495.885847 292.563293,498.895794 294.61535,500.701891 C295.564719,501.535132 296.819017,501.999371 298.122629,502 L298.289643,502 L313.01465,501.558643 C314.378159,501.524764 315.670857,500.985007 316.606179,500.059024 C317.541501,499.133041 318.042175,497.897333 317.997213,496.62583 C317.952898,495.354725 317.372752,494.15124 316.382751,493.27671 C315.392269,492.407515 314.06711,491.948707 312.708459,492.004563 L312.708459,492.004563 Z" id="Path"></path>
            <path d="M391.421119,509 L391.86909,509 C393.001239,508.99495 394.097976,508.581545 394.978534,507.827924 C395.961582,506.949914 396.577221,505.696113 396.691363,504.339603 L397.982573,489.604935 C398.090575,488.244471 397.693553,486.893006 396.875822,485.837548 C396.046747,484.796476 394.862825,484.1445 393.581919,484.023621 C392.3036,483.891917 391.029492,484.314835 390.050856,485.195697 C389.0477,486.0479 388.418946,487.29892 388.311676,488.656111 L387.020466,503.39078 C386.776307,506.225589 388.744884,508.734804 391.421119,509 L391.421119,509 Z" id="Path"></path>
            <path d="M484.286757,492.019804 L469.574701,493.562629 C467.497059,493.77335 465.765232,495.122655 465.19506,496.974904 C464.624887,498.827153 465.33009,500.81292 466.978456,501.996736 C467.881604,502.659707 469.00618,503.014072 470.16095,502.999572 L470.747199,502.999572 L485.459255,501.456748 C488.218926,501.135023 490.213137,498.867306 489.981747,496.313999 C489.830333,495.063211 489.135432,493.922222 488.0555,493.151209 C487.022309,492.311641 485.658622,491.902253 484.286757,492.019804 Z" id="Path"></path>
            <path d="M567.007943,485.134951 C564.1933,484.501792 561.371004,486.156466 560.681896,488.843826 L557.148427,502.915734 C556.468469,505.603511 558.188931,508.311133 560.995348,508.969926 C561.412235,509.010025 561.832273,509.010025 562.24916,508.969926 C564.663269,508.958556 566.757252,507.371121 567.321396,505.124696 L570.88336,491.080059 C571.474744,488.423008 569.761562,485.79489 567.007943,485.134951 L567.007943,485.134951 Z" id="Path"></path>
            <path d="M652.246144,505.996126 C653.07931,506.644515 654.085832,506.99604 655.120301,506.999916 C657.228462,507.012587 659.103098,505.584216 659.758927,503.465535 C660.414757,501.346855 659.701672,499.022797 657.994458,497.714853 L646.708778,488.98745 C645.671609,488.1773 644.368568,487.8454 643.096305,488.067309 C641.822302,488.258457 640.678382,488.994315 639.932096,490.102773 C638.362796,492.386566 638.821086,495.580055 640.960464,497.268723 L652.246144,505.996126 Z" id="Path"></path>
            <path d="M21.2249641,447.040951 L13.3502138,434.415028 C12.6231138,433.245771 11.4743574,432.42104 10.1562591,432.121979 C8.84865191,431.823293 7.47914922,432.078376 6.35655435,432.82971 C5.21931405,433.57728 4.41716518,434.758376 4.12629288,436.113582 C3.82276712,437.457706 4.07179366,438.871032 4.81464519,440.020258 L12.6893956,452.702801 C13.4195807,453.863555 14.5685891,454.678284 15.8833503,454.96754 C16.2492648,455.01082 16.6187994,455.01082 16.9847139,454.96754 C17.9596021,454.967406 18.9144209,454.682713 19.7381232,454.146572 C22.0246083,452.583602 22.68399,449.432414 21.2249641,447.040951 L21.2249641,447.040951 Z" id="Path"></path>
            <path d="M98.4688351,452.554073 C99.3877628,454.083938 101.03381,455.012647 102.803278,454.999592 C103.781045,455.011822 104.742956,454.749072 105.581767,454.240638 C107.971644,452.720741 108.713863,449.541982 107.24886,447.100848 L99.4690911,434.451614 C98.765274,433.28113 97.6223583,432.44943 96.3016137,432.146643 C94.9843627,431.820533 93.5928388,432.043346 92.4395141,432.76505 C91.2810617,433.494429 90.4527049,434.655557 90.1333683,435.997632 C89.825557,437.334228 90.0554473,438.739792 90.7724208,439.904839 L98.4688351,452.554073 Z" id="Path"></path>
            <path d="M187.338072,431.190161 L187.338072,431.190161 C184.669723,430.436483 181.896201,431.990366 181.141451,434.661857 L177.183257,448.603312 C176.827273,449.890321 176.994097,451.266089 177.647321,452.430379 C178.538489,454.021743 180.220331,455.005066 182.042281,454.99998 C182.891744,454.996098 183.726811,454.779992 184.471794,454.371248 C185.642812,453.719005 186.50697,452.627458 186.874008,451.336931 L190.804904,437.395475 C191.173973,436.112078 191.015247,434.73418 190.364074,433.568639 C189.7129,432.403098 188.623352,431.546699 187.338072,431.190161 L187.338072,431.190161 Z" id="Path"></path>
            <path d="M277.148627,437.021478 L262.438146,439.179638 C259.629502,439.592255 257.665928,442.329019 258.047376,445.299351 C258.2323,446.731781 258.946206,448.028547 260.033011,448.906138 C260.930454,449.612392 262.0185,449.995786 263.137314,450 L263.864448,450 L278.546962,447.84184 C281.36578,447.433649 283.337855,444.687142 282.951716,441.707345 C282.565576,438.727549 279.967445,436.642851 277.148627,437.051042 L277.148627,437.021478 Z" id="Path"></path>
            <path d="M363.215965,437.024266 L348.52741,438.697229 C346.45863,438.922142 344.744292,440.258824 344.18727,442.081266 C343.630248,443.903707 344.340832,445.851069 345.986234,447.011345 C346.883298,447.657543 347.996565,448.006309 349.14176,447.999914 L349.784035,447.999914 L364.47259,446.326951 C366.54137,446.102037 368.255708,444.765356 368.81273,442.942914 C369.369752,441.120472 368.659168,439.17311 367.013766,438.012835 C365.933917,437.254175 364.574636,436.900354 363.215965,437.024266 L363.215965,437.024266 Z" id="Path"></path>
            <path d="M431.436364,437.958706 C430.293604,440.519357 431.471997,443.503747 434.076222,444.644391 L447.724851,450.55971 C448.386788,450.852147 449.104996,451.002253 449.831121,450.99992 C450.467183,451.003581 451.097506,450.881949 451.684639,450.642249 C454.343522,449.630243 455.672313,446.707337 454.6615,444.094129 C454.131654,442.850547 453.122508,441.861901 451.85314,441.342818 L438.260679,435.4275 C435.646932,434.307954 432.60066,435.462409 431.436364,438.013732 L431.436364,437.958706 Z" id="Path"></path>
            <path d="M521.379174,439.270549 L527.639876,452.264373 C528.502084,453.955026 530.216414,455.010926 532.081228,454.999915 C532.833289,455.001069 533.575278,454.823117 534.248394,454.480162 C536.687662,453.243273 537.691832,450.224288 536.495825,447.723373 L530.342144,434.811616 C529.76474,433.612175 528.74437,432.696858 527.5061,432.267562 C525.618578,431.612157 523.530787,432.185249 522.218123,433.719095 C520.90546,435.252941 520.627044,437.444758 521.51295,439.270549 L521.379174,439.270549 Z" id="Path"></path>
            <path d="M621.36296,452.799487 C624.026892,451.982711 625.564078,449.070074 624.807045,446.273688 C624.447008,444.925626 623.578622,443.788998 622.401653,443.125276 L609.69134,435.798063 C608.110618,434.765578 606.11433,434.73265 604.503336,435.712488 C602.892341,436.692326 601.93059,438.52439 602.003913,440.473704 C602.077236,442.423018 603.173619,444.170199 604.853221,445.014323 L617.5362,452.341536 C618.282168,452.769505 619.118339,452.995776 619.968926,452.99984 C620.440396,453.003736 620.909928,452.936254 621.36296,452.799487 L621.36296,452.799487 Z" id="Path"></path>
            <path d="M46.6279364,381.285632 L41.3651991,394.983843 C40.878267,396.241699 40.878267,397.651693 41.3651991,398.909549 C42.131852,400.786363 43.8798265,402.001117 45.8122121,401.999999 C46.4725089,401.998567 47.1257795,401.856537 47.7331112,401.582371 C48.9324974,401.07302 49.8830869,400.067224 50.3644799,398.798182 L55.6272171,385.099971 C56.1325933,383.817292 56.1237903,382.372412 55.602827,381.096734 C55.0818637,379.821056 54.0934455,378.824049 52.8642801,378.334391 L52.8642801,378.334391 C50.372117,377.33414 47.5845752,378.653295 46.6279364,381.285632 L46.6279364,381.285632 Z" id="Path"></path>
            <path d="M143.423094,387.124786 L129.299195,382.117449 C126.755059,381.57147 124.195455,382.973553 123.31042,385.39794 C122.425385,387.822328 123.487923,390.521178 125.796468,391.712513 L139.920367,396.71985 C140.484056,396.910202 141.076193,397.004782 141.67173,396.99959 C142.433159,397.009299 143.186767,396.846643 143.875058,396.524032 C145.158939,396.006786 146.177528,394.998072 146.699838,393.726638 C147.159906,392.437217 147.088873,391.020264 146.502104,389.782311 C145.890367,388.513422 144.775962,387.551568 143.423094,387.124786 Z" id="Path"></path>
            <path d="M210.466355,391.739813 L224.220992,396.699819 C224.775029,396.904966 225.362647,397.00661 225.954076,396.9996 C226.695597,397.009059 227.429503,396.850596 228.099799,396.536303 C229.940022,395.667683 231.079531,393.795056 230.995667,391.777344 C230.911803,389.759632 229.620746,387.986154 227.714669,387.270356 L213.960032,382.310349 C212.697522,381.845808 211.299336,381.904751 210.081225,382.473865 C208.816152,382.95551 207.816475,383.945866 207.330297,385.199144 C206.840013,386.47693 206.897547,387.897624 207.489583,389.132392 C208.081618,390.367161 209.156831,391.308964 210.466355,391.739813 Z" id="Path"></path>
            <path d="M294.725572,382.380311 C293.279009,384.83152 294.062671,388.00579 296.478161,389.479281 L309.080113,397.226173 C309.922226,397.727237 310.885523,397.98086 311.862,397.958607 C312.277504,398.013798 312.698346,398.013798 313.11385,397.958607 C314.434132,397.63179 315.567869,396.77836 316.257383,395.592283 C316.96209,394.420262 317.176296,393.012103 316.852565,391.679657 C316.528833,390.347212 315.693879,389.200442 314.532612,388.493313 L301.902842,380.746421 C300.737791,380.033902 299.340483,379.820582 298.019772,380.153611 C296.699062,380.486641 295.563709,381.338596 294.864666,382.521164 L294.725572,382.380311 Z" id="Path"></path>
            <path d="M391.992626,401.999999 L392.18992,401.999999 C394.97877,402.001993 397.269847,399.825258 397.375944,397.072798 L397.996012,382.34687 C398.107279,379.512337 395.876774,377.122647 393.007283,377.00211 C391.63507,376.963635 390.301293,377.452643 389.286875,378.366137 C388.273136,379.286945 387.67437,380.569942 387.623965,381.929311 L387.003897,396.683076 C386.950564,398.041795 387.446423,399.365701 388.382199,400.363038 C389.317975,401.360376 390.616864,401.94929 391.992626,401.999999 L391.992626,401.999999 Z" id="Path"></path>
            <path d="M475.033646,380.748022 C473.651398,379.180877 471.463594,378.601595 469.489199,379.279973 C467.514804,379.958351 466.142071,381.760992 466.010347,383.848319 C465.878623,385.935646 467.013811,387.897199 468.887199,388.81939 L480.674906,397.931317 C481.577777,398.622602 482.682026,398.998022 483.818294,399 L484.491877,399 C485.860502,398.83733 487.10545,398.127378 487.943991,397.031374 C489.664155,394.759458 489.238564,391.523384 486.989748,389.77558 L475.033646,380.748022 Z" id="Path"></path>
            <path d="M556.006997,389.295127 L567.329407,398.024679 C568.156191,398.639673 569.138697,398.972479 570.146844,398.979036 C570.409503,399.006988 570.674121,399.006988 570.93678,398.979036 C572.207986,398.764291 573.34577,398.016343 574.096522,396.901907 C575.646707,394.581055 575.153232,391.362136 572.990612,389.688097 L561.694533,380.986614 C560.652585,380.185434 559.357044,379.85277 558.087161,380.060327 C555.446228,380.519884 553.647464,383.16428 554.058489,385.98295 C554.273053,387.317638 554.973337,388.508017 556.006997,389.295127 L556.006997,389.295127 Z" id="Path"></path>
            <path d="M640.745934,396.408682 C641.930645,397.054973 643.321265,397.17722 644.595935,396.74713 L658.483438,392.14988 C660.207692,391.580569 661.504825,390.111077 661.886219,388.294948 C662.267614,386.478819 661.675328,384.591966 660.332469,383.345148 C658.98961,382.098331 657.100191,381.68097 655.375938,382.250282 L641.488434,386.847531 C638.840647,387.747459 637.393169,390.666201 638.243433,393.390856 C638.641849,394.704471 639.545698,395.794445 640.745934,396.408682 Z" id="Path"></path>
            <path d="M19.0526539,331.001785 L4.8074122,331.368211 C3.49870888,331.3835 2.2542781,331.923136 1.36705194,332.860092 C0.00156154065,334.254106 -0.379419059,336.306427 0.398478145,338.077744 C1.17637535,339.84906 2.96345444,340.998506 4.94180127,341 L4.94180127,341 L19.187043,340.633573 C20.9539064,340.586819 22.5609413,339.625712 23.4027929,338.112292 C24.2446446,336.598872 24.1934157,334.763064 23.2684038,333.296398 C22.3433919,331.829732 20.6851283,330.95503 18.9182648,331.001785 L19.0526539,331.001785 Z" id="Path"></path>
            <path d="M107.628021,337.77678 L97.7006488,327.538046 C96.3044039,326.09735 94.1499119,325.616066 92.2445807,326.319235 C90.3392494,327.022405 89.0595863,328.771076 89.0039424,330.747597 C88.9503752,332.038539 89.4445735,333.294377 90.3713491,334.222401 L100.298722,344.461135 C101.691464,345.898881 103.839644,346.382025 105.742644,345.68552 C107.645643,344.989016 108.929197,343.249844 108.995428,341.278109 C109.053341,339.978604 108.559055,338.712956 107.628021,337.77678 L107.628021,337.77678 Z" id="Path"></path>
            <path d="M190.796582,340.573157 L186.805232,326.625541 C186.439834,325.341746 185.580166,324.258297 184.417508,323.616269 C183.25485,322.97424 181.885652,322.826891 180.614567,323.207008 C179.334267,323.564344 178.255003,324.433995 177.627842,325.613655 C176.984362,326.781283 176.828077,328.158659 177.193409,329.442413 L181.184759,343.362681 C181.810146,345.513381 183.765712,346.993437 185.990671,347 C186.458026,346.989999 186.922678,346.925763 187.375425,346.808562 C188.655014,346.446376 189.737194,345.582919 190.380087,344.41118 C191.022981,343.239441 191.172989,341.857113 190.796582,340.573157 L190.796582,340.573157 Z" id="Path"></path>
            <path d="M272.851748,323.123479 C271.4785,322.829646 270.038375,323.06507 268.848234,323.777951 C267.658092,324.490833 266.815443,325.622767 266.505688,326.9247 L263.130738,341.063053 C262.819704,342.367004 263.068795,343.734698 263.823035,344.864274 C264.577336,345.943238 265.747452,346.699145 267.082602,346.969986 C267.475697,347.010005 267.872182,347.010005 268.265277,346.969986 C269.287517,346.976002 270.289608,346.700495 271.14985,346.176925 C272.344068,345.470142 273.186607,344.336098 273.486354,343.03203 L276.861304,328.893677 C277.185637,327.59008 276.935651,326.217472 276.169006,325.092457 C275.368191,324.05948 274.181694,323.355228 272.851748,323.123479 L272.851748,323.123479 Z" id="Path"></path>
            <path d="M346.239237,342.191856 C347.048756,342.710697 347.990575,342.984342 348.951554,342.979918 C349.312703,343.006694 349.675333,343.006694 350.036481,342.979918 L364.086285,339.882019 C366.773243,339.286471 368.471958,336.624162 367.88353,333.930794 C367.611365,332.630383 366.828396,331.494382 365.711022,330.778726 C364.593648,330.06307 363.235858,329.827957 361.943555,330.126357 L347.89375,333.197081 C345.934505,333.648353 344.433216,335.227648 344.078793,337.21026 C343.724369,339.192872 344.585236,341.19604 346.26636,342.300554 L346.239237,342.191856 Z" id="Path"></path>
            <path d="M432.098887,343.724462 C432.36258,345.099428 433.16396,346.312233 434.325165,347.093703 L435.038715,346.008693 L434.325165,347.093703 C435.173594,347.653156 436.16338,347.960107 437.179367,347.978843 C437.521291,348.007052 437.864956,348.007052 438.20688,347.978843 C439.567265,347.699362 440.765188,346.900442 441.546297,345.751717 L450.108904,333.188445 C450.878326,332.02935 451.165069,330.615577 450.908081,329.248145 C450.640335,327.882419 449.839014,326.679981 448.681803,325.907457 C447.534529,325.110694 446.109973,324.821543 444.743004,325.107976 C443.373218,325.364764 442.161627,326.15568 441.375045,327.306549 L432.812438,339.869821 C432.094636,341.017717 431.839579,342.395551 432.098887,343.724462 L432.098887,343.724462 Z" id="Path"></path>
            <path d="M527.266789,347 L527.813127,347 C530.207706,346.948737 532.19717,345.072293 532.470012,342.607671 L533.978946,328.406705 C534.221893,325.712718 532.334791,323.314422 529.73832,323.017345 C527.146065,322.795009 524.847869,324.735043 524.535097,327.409674 L523.026162,341.637586 C522.893675,342.945139 523.267995,344.253663 524.066807,345.275405 C524.884015,346.249404 526.027711,346.865787 527.266789,347 L527.266789,347 Z" id="Path"></path>
            <path d="M605.54236,342.791593 C606.032957,342.927408 606.541133,342.997554 607.052172,343 C607.865008,342.998471 608.66545,342.810803 609.385517,342.452933 L622.287547,336.044432 C624.756646,334.819815 625.714655,331.929217 624.428735,329.583829 L624.428735,329.583829 C623.809009,328.45161 622.73921,327.600571 621.456252,327.219182 C620.173294,326.837792 618.783051,326.957525 617.593404,327.551866 L604.691375,333.960367 C603.511701,334.555359 602.624742,335.565416 602.220773,336.773855 C601.41277,339.303788 602.890726,341.98141 605.54236,342.791593 L605.54236,342.791593 Z" id="Path"></path>
            <path d="M41.9147833,292.494206 C42.567636,292.826625 43.2859757,292.999692 44.0141575,293 C44.6021625,292.999581 45.184846,292.885194 45.7318273,292.662804 C46.9745565,292.148738 47.959498,291.13363 48.4582874,289.852839 L54.5382932,276.336906 C55.3869434,274.441533 55.0464679,272.206139 53.6751481,270.669921 C52.3038283,269.133704 50.1707062,268.598057 48.2674352,269.311993 C47.0367515,269.8447 46.0578515,270.853582 45.5409751,272.121959 L39.4609693,285.637891 C38.3031974,288.229634 39.4013621,291.298066 41.9147833,292.494206 Z" id="Path"></path>
            <path d="M136.448656,269.192948 L136.448656,269.192948 C133.795612,268.435943 131.032276,269.973073 130.257368,272.636907 L126.211307,286.576743 C125.82526,287.855041 125.972298,289.236403 126.618628,290.403364 C127.262495,291.568318 128.335188,292.432105 129.605653,292.808669 C130.067634,292.925987 130.541345,292.990175 131.017702,293 C133.232813,292.981398 135.174371,291.504567 135.796942,289.36471 L139.788693,275.424874 C140.17474,274.146576 140.027702,272.765213 139.381372,271.598253 C138.750278,270.444345 137.69888,269.582027 136.448656,269.192948 L136.448656,269.192948 Z" id="Path"></path>
            <path d="M220.197513,272.752711 C219.59617,271.533797 218.545746,270.623626 217.288459,270.232075 C214.757137,269.404989 212.059874,270.857608 211.234481,273.492463 C210.841728,274.760609 210.94538,276.139755 211.522766,277.328213 L217.891236,290.260172 C218.718073,291.944796 220.378129,293.003007 222.189298,292.999994 C222.952526,292.987098 223.70385,292.800086 224.390745,292.452029 C225.527415,291.838257 226.384199,290.777438 226.772505,289.503079 C227.160811,288.228719 227.048809,286.845276 226.461153,285.657271 L220.197513,272.752711 Z" id="Path"></path>
            <path d="M302.486804,292.753172 C302.952035,292.914915 303.439754,292.998272 303.930992,293 C306.100802,292.997562 308.012977,291.538047 308.637976,289.407277 L312.783332,275.530041 C313.299291,273.805568 312.87891,271.929818 311.680544,270.609368 C310.482177,269.288918 308.687885,268.724375 306.973559,269.128398 C305.259234,269.532421 303.885322,270.843628 303.369363,272.568101 L299.224008,286.445337 C298.832757,287.725484 298.957575,289.112974 299.570602,290.298116 C300.183629,291.483258 301.233833,292.36739 302.486804,292.753172 L302.486804,292.753172 Z" id="Path"></path>
            <path d="M400.442497,283.188831 L390.173342,273.28018 L390.173342,273.28018 C388.193378,271.464234 385.169605,271.595529 383.345337,273.576657 C381.52107,275.557786 381.556366,278.671934 383.425041,280.608739 L393.694196,290.627181 C394.597872,291.517841 395.80375,292.010261 397.05501,291.99957 C399.073033,292.02664 400.899153,290.77291 401.64971,288.845063 C402.400268,286.917215 401.920472,284.712834 400.442497,283.298622 L400.442497,283.188831 Z" id="Path"></path>
            <path d="M466.741868,279.938872 C466.038703,281.125703 465.823766,282.565847 466.146959,283.924947 L466.146959,283.924947 C466.449485,285.282685 467.246745,286.458106 468.364347,287.194103 C469.178409,287.718519 470.116152,287.987023 471.068478,287.968376 C471.464088,288.010541 471.862686,288.010541 472.258296,287.968376 L486.184573,284.412453 C487.913879,283.971908 489.290201,282.586455 489.79509,280.777981 C490.299979,278.969507 489.856731,277.012763 488.632313,275.644834 C487.407896,274.276905 485.588326,273.705613 483.85902,274.146158 L469.905702,277.702082 C468.607526,277.958784 467.464608,278.766812 466.741868,279.938872 Z" id="Path"></path>
            <path d="M555.159287,289.233192 C556.925138,291.32189 560.063618,291.5982 562.173093,289.850683 L573.194789,280.749401 C574.212802,279.907525 574.854998,278.701706 574.982091,277.39347 C575.093082,276.08464 574.685074,274.784466 573.844717,273.769066 C572.069189,271.677139 568.922206,271.401146 566.80383,273.151575 L555.782134,282.279705 C553.675317,284.03037 553.396611,287.141859 555.159287,289.233192 L555.159287,289.233192 Z" id="Path"></path>
            <path d="M647.334785,273.264586 C645.238941,271.398682 642.060924,271.623699 640.236484,273.767175 C638.412045,275.910651 638.632061,279.160895 640.727905,281.026799 L651.648367,290.743526 C652.566271,291.554444 653.738863,292.000443 654.951807,292 L655.306722,292 C657.341788,291.862829 659.093781,290.480892 659.740518,288.502711 C660.387254,286.524531 659.800357,284.342776 658.255247,282.981313 L647.334785,273.264586 Z" id="Path"></path>
            <path d="M0.138815118,230.997017 C0.687550093,233.339464 2.69226912,234.990051 4.99950195,234.999069 C5.40203179,235.007411 5.80383197,234.959686 6.19430765,234.857152 L20.1789653,231.309233 C21.9155214,230.868126 23.2950246,229.492166 23.7978294,227.699664 C24.3006341,225.907161 23.8503524,223.97044 22.616601,222.619045 C21.3828496,221.267649 19.5530647,220.706888 17.8165086,221.147995 L3.83185092,224.695914 C2.54236274,225.018979 1.42862191,225.864569 0.735936694,227.046437 C0.0432514777,228.228305 -0.171560248,229.649508 0.138815118,230.997017 Z" id="Path"></path>
            <path d="M107.236627,226.855261 L94.283803,220.540107 C93.0951232,219.945184 91.708341,219.836824 90.4359416,220.239443 C89.1635423,220.642062 88.1125748,221.521787 87.5198549,222.680389 C86.3043975,225.060776 87.2915694,227.941864 89.7379918,229.154082 L102.690815,235.469236 C103.880854,236.056762 105.264843,236.161168 106.535054,235.759242 C107.805266,235.357315 108.856409,234.482372 109.454763,233.328954 C110.056774,232.172999 110.164927,230.835333 109.755992,229.603277 C109.328211,228.400526 108.421634,227.41167 107.236627,226.855261 Z" id="Path"></path>
            <path d="M191.123762,223.038568 L176.595113,224.666152 C173.867014,224.923657 171.845208,227.099218 172.009321,229.600685 C172.173434,232.102153 174.465202,234.041447 177.207432,233.999327 L177.847583,233.999327 L192.487563,232.371743 C194.5495,232.146092 196.258169,230.80503 196.813349,228.976615 C197.368529,227.1482 196.660295,225.194455 195.020335,224.030377 C193.920952,223.23327 192.515846,222.875623 191.123762,223.038568 L191.123762,223.038568 Z" id="Path"></path>
            <path d="M263.229388,233.913422 L264.067736,233.913422 L278.682943,231.482239 C281.491853,231.008343 283.393582,228.293552 282.930575,225.418584 C282.467568,222.543616 279.815156,220.597162 277.006247,221.071058 L262.391039,223.530842 C259.709614,223.936071 257.79599,226.402158 258.017419,229.167126 C258.238848,231.932094 260.519282,234.046322 263.229388,233.999228 L263.229388,233.913422 Z" id="Path"></path>
            <path d="M361.348365,216.547179 L361.348365,216.547179 C358.975072,215.291227 356.07389,216.27032 354.85792,218.737578 L348.525138,231.68831 C347.319777,234.161213 348.259431,237.184162 350.627307,238.451166 C353.008265,239.709401 355.917523,238.731542 357.144028,236.260768 L363.47681,223.337415 C364.054478,222.139604 364.158258,220.753504 363.765859,219.476837 C363.370939,218.201266 362.499524,217.145235 361.348365,216.547179 Z" id="Path"></path>
            <path d="M434.543689,223.212651 L440.439094,236.845232 C440.94638,238.123621 441.92968,239.138371 443.168448,239.661882 C443.745034,239.882764 444.354797,239.997176 444.969822,239.999879 C445.675785,240.004931 446.374334,239.851141 447.016838,239.549216 C448.237857,238.994787 449.19323,237.959338 449.670041,236.673628 C450.146853,235.387919 450.105478,233.958798 449.555137,232.704758 L443.659732,219.072177 C442.51766,216.455378 439.540208,215.284233 437.000108,216.452693 C435.759599,216.9735 434.775419,217.989157 434.270753,219.269342 C433.831259,220.566427 433.930012,221.993198 434.543689,223.212651 L434.543689,223.212651 Z" id="Path"></path>
            <path d="M534.689726,219.031549 C533.394173,218.884073 532.093327,219.257356 531.059851,220.073156 L519.903323,229.009042 C518.864695,229.817375 518.190372,231.024347 518.035004,232.353147 C517.879843,233.684608 518.244516,235.024982 519.049234,236.081002 C519.842407,237.140537 521.014491,237.831197 522.305446,237.99975 L522.919322,237.99975 C524.014589,238.011123 525.08004,237.633476 525.935321,236.930733 L537.091849,227.994847 C538.130477,227.186514 538.8048,225.979542 538.960168,224.650742 C539.126198,223.319801 538.768966,221.975777 537.967515,220.916055 C537.166063,219.856333 535.986466,219.16828 534.689726,219.004139 L534.689726,219.031549 Z" id="Path"></path>
            <path d="M607.337926,237.999243 C608.357829,237.983541 609.350205,237.666772 610.189773,237.088924 L622.680861,228.554687 C623.84244,227.780358 624.644283,226.57379 624.906926,225.205031 C625.169569,223.836273 624.87108,222.419618 624.078266,221.272138 L624.078266,221.272138 C622.432613,218.895732 619.174447,218.286347 616.777539,219.90666 L604.28645,228.440897 C601.908303,230.082519 601.28673,233.321836 602.889045,235.723446 C603.898129,237.175344 605.567079,238.029085 607.337926,237.999243 Z" id="Path"></path>
            <path d="M47.1126006,185.15966 C47.9321311,185.700693 48.8968993,185.993038 49.8858048,186 L50.8564262,186 C52.1889571,185.750722 53.3650701,184.992987 54.1248297,183.894263 C54.8845892,182.795539 55.1654378,181.446294 54.9053043,180.144728 L52.1321001,166.048702 C51.7853305,164.295778 50.508191,162.856844 48.7817675,162.273933 C47.0553441,161.691022 45.1419217,162.052691 43.7622679,163.222704 C42.3826142,164.392717 41.7463314,166.19332 42.0931011,167.946244 L44.8663052,182.04227 C45.1741839,183.326376 45.9793673,184.443803 47.1126006,185.15966 Z" id="Path"></path>
            <path d="M142.926437,179.963075 C143.158756,178.691466 142.835682,177.385721 142.029924,176.339706 L133.372971,165.023243 C131.709642,162.8481 128.479768,162.348498 126.158844,163.90735 C123.83792,165.466203 123.304834,168.493204 124.968162,170.668346 L133.625115,181.984809 C134.839342,183.570989 136.95283,184.316443 138.981651,183.874126 C141.010472,183.43181 142.555882,181.888655 142.898421,179.963075 L142.926437,179.963075 Z" id="Path"></path>
            <path d="M213.508123,185.275618 C214.303953,185.749887 215.217257,186.000466 216.148326,185.999999 C216.589112,185.999173 217.027978,185.942995 217.454233,185.832834 C218.798178,185.485924 219.949938,184.635683 220.662221,183.464665 L228.270547,170.732272 C228.975727,169.556179 229.179753,168.154582 228.838332,166.831758 C228.503382,165.542794 227.681254,164.427184 226.538801,163.711346 C225.345449,163.020288 223.921215,162.822851 222.57951,163.162484 C221.237805,163.502116 220.088571,164.350988 219.384704,165.522299 L211.747988,178.254692 C210.266755,180.671701 211.053268,183.808986 213.508123,185.275618 Z" id="Path"></path>
            <path d="M295.829631,181.46971 C297.042982,182.07597 298.446761,182.166319 299.72671,181.72053 L313.546138,177.010679 C314.826916,176.573193 315.882155,175.639374 316.478597,174.415641 C317.07504,173.191908 317.163565,171.779039 316.724606,170.489347 C316.303086,169.195342 315.383148,168.126648 314.171875,167.523832 C312.960602,166.921017 311.559785,166.834738 310.284753,167.284418 L296.465325,171.99427 C293.808246,172.918724 292.380121,175.823579 293.259218,178.515602 C293.700874,179.800797 294.623337,180.86096 295.829631,181.46971 L295.829631,181.46971 Z" id="Path"></path>
            <path d="M389.170416,185.99881 C391.467138,186.04717 393.52438,184.617867 394.231649,182.482435 L398.758641,168.581768 C399.173044,167.30309 399.050309,165.915921 398.417462,164.725692 C397.784615,163.535462 396.693545,162.639763 395.384486,162.235811 C394.075726,161.830934 392.655924,161.950847 391.437693,162.569148 C390.219462,163.187449 389.302692,164.253441 388.889237,165.532412 L384.249773,179.378136 C383.824289,180.651866 383.94605,182.039764 384.587188,183.22417 C385.218787,184.418953 386.311628,185.318607 387.623928,185.724093 L387.623928,185.724093 C388.121152,185.895576 388.643232,185.988318 389.170416,185.99881 L389.170416,185.99881 Z" id="Path"></path>
            <path d="M471.13685,183.078511 C472.241044,183.832058 473.618082,184.141789 474.964933,183.939545 C476.311783,183.737301 477.51808,183.039654 478.318366,182.000128 L487.00884,170.690264 C487.823718,169.657012 488.156645,168.356058 487.93098,167.086889 C487.606806,165.149466 486.072374,163.587769 484.045584,163.132452 C482.018794,162.677135 479.900447,163.418239 478.681634,165.00903 L469.99116,176.318894 C469.176282,177.352147 468.843355,178.6531 469.06902,179.92227 C469.288686,181.190009 470.031999,182.324568 471.13685,183.078511 L471.13685,183.078511 Z" id="Path"></path>
            <path d="M572.80465,172.364883 L559.199697,166.395987 C556.61191,165.33891 553.624854,166.468906 552.464235,168.943996 C551.303616,171.419086 552.391914,174.338304 554.918221,175.52649 L568.551342,181.495387 C570.246127,182.292488 572.254495,182.136716 573.796418,181.088571 C575.338341,180.040426 576.170836,178.265078 575.970574,176.452053 C575.770311,174.639028 574.568847,173.074029 572.832818,172.364883 L572.80465,172.364883 Z" id="Path"></path>
            <path d="M652.273293,181.995635 C653.096343,182.647579 654.097404,183 655.126217,183 L655.89228,183 C657.830437,182.669278 659.393035,181.145681 659.859707,179.131597 C660.32638,177.117513 659.606514,175.00401 658.031973,173.765425 L646.72594,165.005134 C645.685726,164.196213 644.384574,163.855171 643.106953,164.056567 C641.840858,164.277407 640.70485,165.007277 639.937037,166.093195 L639.937037,166.093195 C638.352735,168.390535 638.825096,171.60831 640.993675,173.291142 L652.273293,181.995635 Z" id="Path"></path>
            <path d="M6.87343043,110.241013 C6.11366105,111.370291 5.83379173,112.758203 6.0960535,114.096136 L8.87239967,128.650624 C9.26690374,131.137849 11.394429,132.971064 13.8975862,132.980654 C14.2117166,133.006449 14.5274136,133.006449 14.8415439,132.980654 C16.1763072,132.735307 17.356922,131.960127 18.1176324,130.829607 C18.8923669,129.706705 19.1735228,128.312413 18.8950094,126.974483 L16.1186632,112.419996 C15.9199868,110.970962 15.1106866,109.678228 13.8975862,108.872165 C12.7705379,108.119089 11.395853,107.838438 10.0662285,108.089966 L10.2883362,109.319136 L10.0662285,108.089966 C8.76197587,108.355962 7.61466335,109.128928 6.87343043,110.241013 L6.87343043,110.241013 Z" id="Path"></path>
            <path d="M87.8606249,126.686939 C88.8057126,128.134621 90.4052845,129.003741 92.1176743,128.999988 C93.1088404,128.986192 94.0749963,128.68255 94.9000595,128.125542 L107.170378,119.832415 C108.932513,118.93898 110.032585,117.099669 109.999264,115.102542 C109.965943,113.105415 108.805141,111.304873 107.01421,110.472368 C105.223279,109.639862 103.12003,109.923125 101.605608,111.200792 L89.3352891,119.49392 C88.1933354,120.244214 87.3930076,121.424551 87.1110902,122.774204 C86.8291727,124.123857 87.0888641,125.531766 87.8328011,126.686939 L87.8606249,126.686939 Z" id="Path"></path>
            <path d="M176.985146,126.977862 C177.219259,127.007379 177.455677,127.007379 177.689789,126.977862 L191.918149,124.864273 C194.548869,124.330749 196.327646,121.612145 195.949317,118.703214 C195.570989,115.794282 193.170357,113.731497 190.508864,114.028408 L176.307605,116.231304 C174.991758,116.422981 173.800772,117.186029 173.001095,118.349739 C172.201418,119.513449 171.859793,120.980696 172.052648,122.423227 L172.052648,122.423227 C172.463108,125.061113 174.548799,126.987026 176.985146,126.977862 L176.985146,126.977862 Z" id="Path"></path>
            <path d="M271.464967,128.506654 C272.389032,129.440269 273.654032,129.977312 274.982463,129.999971 L274.982463,129.999971 C276.287016,130.004356 277.54087,129.506205 278.472691,128.613319 C280.454778,126.719363 280.515487,123.6202 278.609028,121.653392 L268.547355,111.493499 C267.623291,110.559884 266.35829,110.022841 265.029859,110.000181 C263.699824,109.989092 262.418002,110.486691 261.457829,111.386834 L261.457829,111.386834 C259.514057,113.317416 259.514057,116.416178 261.457829,118.34676 L271.464967,128.506654 Z" id="Path"></path>
            <path d="M355.949338,129.776348 C356.701246,130.924716 357.851007,131.715684 359.150852,131.978803 C359.466819,132.007066 359.784488,132.007066 360.100454,131.978803 C361.070489,131.961317 362.014147,131.642965 362.813602,131.063497 C363.914517,130.295822 364.669413,129.086546 364.902725,127.716909 C365.165248,126.34699 364.891261,124.923368 364.143044,123.769652 L356.003601,111.212796 C355.269345,110.127151 354.175179,109.371747 352.937744,109.096151 C351.634649,108.827664 350.283963,109.126902 349.1936,109.925647 C348.096252,110.703951 347.338799,111.911655 347.089224,113.280923 C346.839649,114.650191 347.11858,116.067846 347.864158,117.219492 L355.949338,129.776348 Z" id="Path"></path>
            <path d="M444.893209,133 C445.341308,132.998622 445.78758,132.943697 446.222236,132.836432 L446.222236,132.836432 C447.530816,132.491688 448.646074,131.648023 449.321505,130.491909 C449.996937,129.335796 450.176924,127.962435 449.821684,126.675377 L446.028419,112.71759 C445.692974,111.436512 444.843609,110.344438 443.674934,109.691585 C442.507441,109.009038 441.108628,108.822125 439.798605,109.17362 C437.071927,109.892498 435.449826,112.647799 436.171469,115.334675 L439.964733,129.292463 C440.574559,131.478435 442.590793,132.995185 444.893209,133 L444.893209,133 Z" id="Path"></path>
            <path d="M536.232346,111.248084 C535.222998,110.350768 533.878779,109.904876 532.521056,110.017009 C531.163172,110.092389 529.894514,110.704407 529.005096,111.713156 L519.266445,122.65604 C517.941061,124.144622 517.626585,126.255758 518.462398,128.053769 C519.29821,129.85178 521.129713,131.004093 523.145163,130.999989 L523.480016,130.999989 C524.846123,130.925696 526.123866,130.314149 527.02388,129.303842 L536.734626,118.360958 C538.592064,116.273491 538.380065,113.106972 536.260251,111.275441 L536.232346,111.248084 Z" id="Path"></path>
            <path d="M615.521714,128.548351 C616.448209,129.478811 617.708673,130.001389 619.023003,129.999954 C621.030488,130.008519 622.844834,128.807437 623.617788,126.958245 C624.390743,125.109053 623.969588,122.977108 622.551225,121.559147 L612.478286,111.451683 C611.555242,110.516104 610.292526,109.992593 608.976997,110.000079 C606.969512,109.991515 605.155166,111.192597 604.382212,113.041789 C603.609257,114.89098 604.030412,117.022926 605.448775,118.440887 L615.521714,128.548351 Z" id="Path"></path>
            <path d="M45.9228207,78 L46.5578207,78 C47.5861549,77.9981077 48.5855123,77.6388909 49.4026208,76.9774428 C50.3910389,76.1838934 51.0327642,74.9989948 51.1806209,73.694496 L52.958621,59.5670611 C53.292795,56.9151372 51.5672247,54.4657054 49.0724208,54.0506341 C47.8444149,53.8605382 46.5964307,54.210518 45.6180207,55.0193725 C44.6309588,55.8181678 43.9825735,56.9985018 43.8146206,58.3023193 L42.0366205,72.4297542 C41.8841352,73.7373598 42.2114685,75.0570699 42.9510205,76.116342 C43.6756199,77.1263277 44.7401799,77.8010928 45.9228207,78 Z" id="Path"></path>
            <path d="M128.859049,76.9999058 C130.315698,77.0090081 131.701039,76.3582235 132.640289,75.2236123 L141.838623,64.2925754 C143.593576,62.1620791 143.329942,58.9871149 141.248642,57.1874014 C140.242559,56.3414286 138.956408,55.920855 137.655124,56.0123149 C136.348174,56.1187633 135.139068,56.7594618 134.302961,57.7886084 L125.104627,68.7196453 C123.912951,70.2143947 123.663772,72.2714385 124.462981,74.0166181 C125.262191,75.7617978 126.969374,76.8885 128.859049,76.917923 L128.859049,76.9999058 Z" id="Path"></path>
            <path d="M217.618965,78 L218.407652,78 C221.076254,77.9864825 223.334547,76.1845444 223.723984,73.7579903 L225.943991,59.6627047 C226.220544,57.9121783 225.460018,56.1590186 223.948897,55.0636238 C222.437775,53.9682291 220.405633,53.6970158 218.617959,54.3521475 C216.830284,55.0072792 215.558668,56.4892257 215.282116,58.2397521 L213.062109,72.3350376 C212.844638,73.6422686 213.203319,74.975239 214.058676,76.0385962 C214.914033,77.1019534 216.195439,77.8078943 217.618965,78 L217.618965,78 Z" id="Path"></path>
            <path d="M300.992586,77.610079 C302.183551,78.1299737 303.520321,78.1299737 304.711286,77.610079 C305.90337,77.0830991 306.851076,76.0794106 307.348662,74.8169084 L312.623414,61.1303728 C313.657587,58.5079095 312.488602,55.4940961 310.012412,54.3988321 C307.536221,53.303568 304.69051,54.5416075 303.656336,57.1640706 L298.381584,70.8506063 C297.877372,72.1125178 297.872669,73.5359917 298.36853,74.8016095 C298.864391,76.0672273 299.819292,77.0690039 301.01896,77.5821473 L300.992586,77.610079 Z" id="Path"></path>
            <path d="M386.048583,75.9999311 L386.048583,75.9999311 C387.312195,75.9977216 388.529962,75.5248316 389.465717,74.6729708 L400.295828,64.8589933 C401.83994,63.4903983 402.398801,61.3171135 401.707331,59.3699819 C401.01586,57.4228503 399.213149,56.093546 397.154269,56.012591 C395.813806,55.9151542 394.49411,56.3865375 393.516675,57.3119064 L382.659006,67.1258839 C380.595148,69.0179265 380.435329,72.2244551 382.300758,74.3135857 C383.248445,75.3925593 384.615097,76.0074887 386.048583,75.9999311 L386.048583,75.9999311 Z" id="Path"></path>
            <path d="M485.52317,62.1240266 L471.295506,61.011623 C469.323739,60.8762333 467.460427,61.9328401 466.553244,63.7007623 C465.646062,65.4686846 465.868287,67.6102355 467.118825,69.1511615 C467.979602,70.1571988 469.199501,70.7810951 470.514063,70.8875964 L484.741727,72 L485.145922,72 C487.034787,71.9499892 488.733219,70.8290106 489.532269,69.1049761 C490.331319,67.3809416 490.093627,65.3502196 488.918408,63.8604615 C488.057631,62.8544241 486.837731,62.2305279 485.52317,62.1240266 L485.52317,62.1240266 Z" id="Path"></path>
            <path d="M572.57331,62.8828903 L558.6939,58.273985 C557.414716,57.8281404 556.01127,57.9296297 554.807665,58.5550158 C553.594031,59.1746725 552.674419,60.258518 552.252412,61.5666116 C551.830406,62.8747051 551.940816,64.2991413 552.5592,65.5245799 C553.163742,66.7511364 554.236513,67.6748075 555.529394,68.0819603 L569.408804,72.7189687 C569.916049,72.9051531 570.451504,73.0002577 570.991057,72.9999995 C572.709243,72.9663822 574.295554,72.0602615 575.212383,70.588726 C576.129212,69.1171905 576.253642,67.277524 575.543504,65.6931984 C574.9802,64.3806933 573.904829,63.3632096 572.57331,62.8828903 L572.57331,62.8828903 Z" id="Path"></path>
            <path d="M649.000476,77.9997196 L649.000476,77.9997196 C651.740511,77.9998855 653.97014,75.7402373 653.999923,72.9329613 L653.999923,58.1502763 C654.015034,55.3319933 651.805313,53.0305914 649.054818,53 C647.728425,53.0103047 646.455671,53.5379033 645.495428,54.4754846 C644.551636,55.4217676 644.013979,56.7138414 644.001028,58.0667583 L644.001028,72.8494433 C643.97363,74.2076263 644.494693,75.5171478 645.441087,76.4685564 C646.370589,77.4601963 647.65866,78.0142932 649.000476,77.9997196 L649.000476,77.9997196 Z" id="Path"></path>
            <path d="M5.1159438,19.9998948 C5.6539283,19.9853107 6.18589317,19.8816507 6.69061947,19.6930497 L20.5035639,14.9787924 C23.1492538,14.0886316 24.5998349,11.2212711 23.7634188,8.53504424 C23.3470893,7.23419985 22.4314181,6.15632897 21.2214978,5.54285375 C20.0115775,4.92937854 18.6085213,4.83156723 17.3265867,5.27132765 L3.51364224,9.98558495 C1.12955105,10.7673332 -0.334251445,13.1872688 0.0655384167,15.6859368 C0.465328278,18.1846048 2.60934608,20.0159831 5.1159438,19.9998948 Z" id="Path"></path>
            <path d="M95.0215408,23.8642741 L95.0215408,23.8642741 C95.424026,23.9496052 95.834692,23.9950888 96.2469946,24 C98.6684435,23.9913762 100.772403,22.4127916 101.348302,20.1725284 L104.85367,6.16561094 C105.53047,3.48206553 103.795191,0.784029598 100.977816,0.139379024 C98.1604418,-0.50527155 95.3278542,1.14757929 94.6510548,3.8311247 L91.1456869,17.8380421 C90.8199469,19.1267689 91.0453926,20.4859749 91.7723681,21.6162867 C92.4993436,22.7465984 93.6682185,23.5553015 95.0215408,23.8642741 Z" id="Path"></path>
            <path d="M176.950295,18.9793268 C177.264633,19.0068911 177.580666,19.0068911 177.895004,18.9793268 L191.95768,16.1896507 C193.7031,15.8458047 195.138446,14.565684 195.723038,12.8314979 C196.30763,11.0973118 195.952653,9.17252427 194.791824,7.78218421 C193.630996,6.39184415 191.840673,5.74717726 190.095253,6.09102333 L176.032577,8.88069941 C174.737743,9.13066161 173.593144,9.90479143 172.853147,11.0310522 C172.113151,12.157313 171.839061,13.5424003 172.091789,14.878503 C172.317001,16.2245222 173.068768,17.4152102 174.17015,18.1703207 C174.997493,18.7218182 175.96608,19.0036714 176.950295,18.9793268 Z" id="Path"></path>
            <path d="M266.879264,23.8632815 C267.291427,23.9483978 267.71122,23.9937583 268.132543,23.9987038 C269.110135,24.0200996 270.074532,23.7762546 270.917607,23.294508 C272.081827,22.6200928 272.915702,21.5160493 273.22921,20.2339648 L276.821942,6.28547172 C277.306566,4.54394351 276.78546,2.68368715 275.459507,1.42182701 C274.133554,0.159966875 272.209842,-0.306420426 270.429958,0.2024563 C268.650073,0.711333025 267.291996,2.11599769 266.879264,3.87495543 L263.147278,17.8234486 C262.479696,20.4910312 264.143851,23.1842929 266.879264,23.8632815 Z" id="Path"></path>
            <path d="M354.935893,21.2512299 L354.935893,21.2512299 C355.862169,22.919588 357.678879,23.974416 359.670049,24 C361.564846,23.9952595 363.315322,23.0412957 364.270801,21.4927098 C365.226281,19.9441238 365.243886,18.0324831 364.317073,16.46837 L357.027054,3.60412616 C355.591429,1.15997937 352.334078,0.280053206 349.751558,1.638756 C347.169037,2.99745879 346.239294,6.08027751 347.674919,8.52442457 L354.935893,21.2512299 Z" id="Path"></path>
            <path d="M449.128986,6 L434.437154,8.2545045 C432.375354,8.56613685 430.692919,10.1403813 430.16757,12.2495281 C429.642222,14.3586749 430.376308,16.5918185 432.030492,17.9166667 C432.928504,18.6161225 434.017241,18.9958266 435.136765,19 L435.86436,19 L450.556192,16.8626126 C453.376799,16.4502648 455.343862,13.7236386 454.94975,10.7725225 C454.555637,7.82140645 451.949593,5.76332802 449.128986,6.17567568 L449.128986,6 Z" id="Path"></path>
            <path d="M529.358937,21.4612521 C530.297778,22.4505271 531.619555,23.0089121 533.001117,22.9998924 C534.995204,22.9989457 536.798158,21.84192 537.589365,20.0554353 C538.380571,18.2689506 538.008814,16.1944435 536.643297,14.7761254 L526.640892,4.53620912 C524.749027,2.57389553 521.585871,2.47890293 519.573975,4.32398288 C517.56342,6.17045435 517.466092,9.25771379 519.356532,11.2213358 L529.358937,21.4612521 Z" id="Path"></path>
            <path d="M613.663252,21.5996262 C614.602803,23.0986041 616.222836,24.0034184 617.961007,23.9999903 C619.806993,23.9887328 621.50107,22.9497239 622.383434,21.287634 C623.265797,19.6255441 623.196933,17.6031735 622.203662,16.0081898 L614.351995,3.38509863 C613.367739,1.82129908 611.644352,0.914532019 609.831018,1.00636782 C608.017684,1.09820361 606.389891,2.17469023 605.560813,3.83032558 C604.731735,5.48596092 604.827329,7.46921461 605.811585,9.03301416 L613.663252,21.5996262 Z" id="Path"></path>
            <path d="M657.368372,712.15605 L643.490818,708.229503 C641.755064,707.683597 639.860968,708.127796 638.545652,709.38923 C637.230337,710.650665 636.701572,712.530075 637.165138,714.296054 C637.628703,716.062034 639.011372,717.435622 640.775054,717.882264 L654.652608,721.808811 C655.093075,721.94075 655.55087,722.005101 656.01049,721.999685 C656.856037,721.999322 657.687666,721.783536 658.42752,721.372528 C659.586705,720.715066 660.444268,719.628985 660.817392,718.345815 C661.550207,715.682331 660.01245,712.922603 657.368372,712.15605 Z" id="Path"></path>
            <path d="M571.243493,705.190871 C569.934096,704.814332 568.532194,704.999683 567.358009,705.704587 L554.591421,713.182004 C553.403558,713.87291 552.534042,715.024001 552.176871,716.378457 C551.761741,717.958199 552.086482,719.64665 553.055147,720.944951 C554.023813,722.243251 555.525669,723.002984 557.116985,722.999682 C558.003523,723.009914 558.876228,722.773229 559.642549,722.314728 L572.436891,714.808771 C574.224946,713.752525 575.219781,711.694072 574.958783,709.590626 C574.697786,707.48718 573.232178,705.751565 571.243493,705.190871 L571.243493,705.190871 Z" id="Path"></path>
            <path d="M482.606476,708.098677 L468.66947,712.179288 C466.242615,712.862653 464.697148,715.217676 465.050052,717.694652 C465.402956,720.171627 467.545866,722.009964 470.068657,721.999959 C470.550768,722.001861 471.030838,721.93778 471.49528,721.80953 L485.459721,717.783327 C488.067235,716.973434 489.55153,714.253289 488.808722,711.645887 C488.065914,709.038486 485.365684,707.490458 482.716216,708.153085 L482.606476,708.098677 Z" id="Path"></path>
            <path d="M394.200485,721.963095 C395.050433,722.626779 396.083212,722.990215 397.147065,723 C398.664212,722.993733 400.092748,722.257947 401.014451,721.008051 C401.781322,719.944794 402.120822,718.614548 401.961566,717.297024 C401.787604,715.974913 401.116021,714.778017 400.093644,713.968014 L388.991353,705.208898 C387.628749,703.997454 385.731766,703.667324 384.062556,704.351144 C382.393345,705.034965 381.225886,706.620496 381.029229,708.470718 C380.832572,710.32094 381.638995,712.132163 383.124502,713.176692 L394.200485,721.963095 Z" id="Path"></path>
            <path d="M313.706825,711.410599 L299.832374,706.292769 C297.22557,705.384248 294.347923,706.658893 293.346588,709.165628 C292.345253,711.672363 293.585434,714.496938 296.141771,715.531799 L310.016221,720.676564 C310.602426,720.887797 311.222362,720.99721 311.847648,720.999796 C314.320588,721.021442 316.453994,719.319631 316.911395,716.960461 C317.368797,714.60129 316.01868,712.263079 313.706825,711.410599 L313.706825,711.410599 Z" id="Path"></path>
            <path d="M218.259987,726.997822 C219.344441,727.009498 220.403643,726.688201 221.278586,726.082163 C222.415908,725.327759 223.185382,724.17315 223.414387,722.877358 L225.920393,708.792375 C226.163306,707.500279 225.845045,706.170137 225.037595,705.102809 C223.812812,703.457692 221.65778,702.676227 219.583937,703.125186 C217.510095,703.574145 215.929157,705.164396 215.583117,707.149576 L213.077111,721.234559 C212.838489,722.531953 213.158826,723.865699 213.966669,724.938308 C214.774513,726.010917 216.002665,726.733166 217.37719,726.94396 C217.668952,726.988616 217.964577,727.006653 218.259987,726.997822 Z" id="Path"></path>
            <path d="M125.923724,710.064342 L133.629712,722.580257 C134.344721,723.733573 135.482743,724.553634 136.794671,724.860934 C137.174023,724.948449 137.561489,724.995065 137.950569,725 C139.787809,724.984673 141.474372,723.970195 142.36374,722.345448 C143.253107,720.720702 143.20731,718.737738 142.243905,717.156694 L134.510396,704.668592 C133.611468,703.001715 131.873381,701.974667 129.995107,702.000475 C128.116833,702.026284 126.407018,703.100708 125.553266,704.791669 C124.699513,706.482629 124.842115,708.512259 125.923724,710.064342 L125.923724,710.064342 Z" id="Path"></path>
            <path d="M56.1917572,709.838208 L41.416047,709.007543 C39.5833886,708.908621 37.8368058,709.788264 36.8342195,711.315121 C35.8316332,712.841978 35.7253602,714.784083 36.5554325,716.409862 C37.3855048,718.035642 39.0258146,719.098102 40.858473,719.197025 L55.6063046,720 L55.9129702,720 C57.1688794,719.994365 58.3790685,719.53132 59.3141715,718.698626 C60.842482,717.323486 61.393069,715.173064 60.7118123,713.239874 C60.0305557,711.306684 58.2499239,709.966631 56.1917572,709.838208 Z" id="Path"></path>
            <path d="M614.728235,780 L615.585884,780 C618.454571,779.545164 620.395965,776.987467 619.931303,774.27511 L617.444122,760.151916 C617.094587,758.171485 615.517609,756.584375 613.447347,756.129459 C611.377085,755.674543 609.220427,756.441231 607.981399,758.072593 C607.175433,759.145084 606.846969,760.473401 607.066574,761.772168 L609.525166,775.895362 C609.981225,778.271655 612.171542,779.99957 614.728235,780 L614.728235,780 Z" id="Path"></path>
            <path d="M527.755155,781 C528.946064,780.999832 530.093041,780.512728 530.966805,779.63606 C531.888621,778.716216 532.426393,777.430453 532.457011,776.073114 L532.996568,761.320293 C533.060823,759.490473 532.219131,757.762512 530.78855,756.787316 C529.357969,755.81212 527.555838,755.737844 526.061002,756.592467 C524.566165,757.447091 523.605726,759.100776 523.541471,760.930596 L523.001914,775.683417 C522.928965,778.501407 524.950478,780.8647 527.54961,781 L527.755155,781 Z" id="Path"></path>
            <path d="M450.610585,764.497473 L435.963077,762.067212 C433.153332,761.603834 430.512645,763.585667 430.064939,766.493759 C429.617232,769.401851 431.532043,772.134967 434.341788,772.598344 L448.989296,774.999674 L449.799941,774.999674 C452.504565,775.030394 454.770068,772.887762 454.983712,770.097049 C455.197356,767.306335 453.286135,764.821177 450.610585,764.410678 L450.610585,764.497473 Z" id="Path"></path>
            <path d="M345.263679,766.322017 C345.659786,767.543578 346.558399,768.55717 347.751681,769.128363 L360.65648,775.449198 C361.363899,775.809314 362.152245,775.998376 362.953097,775.999976 C365.282635,776.006961 367.312454,774.478794 367.859061,772.306478 C368.405667,770.134162 367.326062,767.886001 365.249714,766.872795 L352.344914,760.525733 C349.867586,759.320458 346.840576,760.257158 345.564427,762.623935 C344.936074,763.763884 344.82722,765.10238 345.263679,766.322017 L345.263679,766.322017 Z" id="Path"></path>
            <path d="M269.019772,758.713156 C268.116122,757.70782 266.840975,757.097355 265.476845,757.017009 C264.11948,756.904876 262.775617,757.350768 261.766535,758.248083 C260.737963,759.120027 260.106558,760.358302 260.012295,761.688396 C259.918032,763.01849 260.368699,764.330512 261.264388,765.3336 L271.000463,776.276482 C271.986424,777.362756 273.395247,777.98893 274.878155,777.999986 C276.123057,778.002914 277.325182,777.554751 278.253699,776.741554 C280.37012,774.901155 280.593463,771.737524 278.755846,769.628681 L269.019772,758.713156 Z" id="Path"></path>
            <path d="M184.295837,779.994546 L184.855797,779.994546 C187.385796,779.683301 189.217559,777.283853 188.979136,774.593334 L187.350162,760.388145 C187.20109,759.078286 186.569748,757.884168 185.593925,757.0664 C184.618607,756.241169 183.369574,755.870876 182.132357,756.040169 C180.896109,756.195561 179.76904,756.866796 179.000129,757.905594 C178.231219,758.944392 177.883746,760.265262 178.034471,761.576412 L179.663444,775.7816 C179.810667,777.09854 180.453204,778.296472 181.445134,779.103346 C182.2739,779.732045 183.278192,780.046012 184.295837,779.994546 L184.295837,779.994546 Z" id="Path"></path>
            <path d="M102.584104,760.443698 L89.0178097,766.503876 C86.7982841,767.486565 85.5938704,769.816763 86.1243613,772.101877 C86.6548523,774.386991 88.7769108,776.009588 91.2223326,775.999957 C91.973276,775.993219 92.7144898,775.836573 93.3985923,775.540033 L106.99315,769.479856 C108.215593,768.938492 109.175986,767.970787 109.678146,766.774419 C110.159908,765.532786 110.09878,764.157722 109.508567,762.959754 C108.940672,761.745635 107.891211,760.797868 106.59197,760.325779 C105.292729,759.85369 103.850604,759.89612 102.584104,760.443698 L102.584104,760.443698 Z" id="Path"></path>
            <path d="M20.9282402,766.533355 L7.40075218,760.482417 C6.15749292,759.914483 4.72772671,759.845088 3.43049688,760.289717 C2.13326705,760.734346 1.07653246,761.655996 0.496096811,762.849006 C-0.091243293,764.036482 -0.159893326,765.398035 0.30526433,766.633834 C0.770421986,767.869633 1.73124086,768.878333 2.97613629,769.437805 L16.5599889,775.515636 C17.2456835,775.83153 17.9967896,775.996933 18.7582057,775.999711 C21.2158515,776.024912 23.3544555,774.400293 23.879677,772.109115 C24.4048986,769.817938 23.1724492,767.489634 20.9282402,766.533355 L20.9282402,766.533355 Z" id="Path"></path>
            <path d="M647.720487,809.011447 C646.385731,809.09014 645.13725,809.708382 644.252835,810.728612 C643.368421,811.748842 642.921441,813.086424 643.011352,814.443742 L643.942227,829.18058 C644.101123,831.880466 646.294351,833.990137 648.952528,834 L649.281072,834 C652.054738,833.820976 654.161932,831.390191 653.990207,828.567706 L653.059331,813.830867 C652.989037,812.467793 652.384474,811.19033 651.380997,810.284482 C650.377519,809.378634 649.058946,808.920067 647.720487,809.011447 L647.720487,809.011447 Z" id="Path"></path>
            <path d="M569.693035,810.847592 L569.693035,810.847592 C568.568983,810.091327 567.200549,809.82679 565.887997,810.112025 C564.585633,810.412455 563.447098,811.223945 562.712569,812.375307 L554.801375,824.964815 C553.2982,827.38827 553.970856,830.611381 556.306965,832.179027 C557.119925,832.72837 558.073195,833.014075 559.044403,832.999466 C560.753766,833.016201 562.353387,832.130947 563.287431,830.651311 L571.198625,818.061804 C572.7018,815.638348 572.029144,812.415237 569.693035,810.847592 L569.693035,810.847592 Z" id="Path"></path>
            <path d="M481.359506,810.242872 L481.359506,810.242872 C480.039688,809.830379 478.604315,809.94672 477.373635,810.565937 C476.142956,811.185155 475.219374,812.255724 474.808952,813.538789 L470.243414,827.409107 C469.825483,828.687519 469.949262,830.0744 470.587498,831.264383 C471.225733,832.454366 472.326093,833.349879 473.646299,833.753747 C474.960709,834.172583 476.394685,834.053534 477.616332,833.424155 C478.849635,832.807201 479.778295,831.739701 480.196853,830.45783 L484.762391,816.587513 C485.615977,813.926676 484.097969,811.096367 481.359506,810.242872 L481.359506,810.242872 Z" id="Path"></path>
            <path d="M400.781526,815.839032 C399.68457,815.099004 398.338853,814.833627 397.046073,815.102397 L382.997521,818.021655 C381.701159,818.28474 380.561814,819.056644 379.830636,820.167211 C379.099458,821.277779 378.836474,822.635835 379.099657,823.942018 C379.35732,825.252699 380.12819,826.403405 381.238069,827.134103 C382.042051,827.670046 382.981143,827.963469 383.944919,827.97987 C384.287269,828.00671 384.631171,828.00671 384.973522,827.97987 L399.022074,825.060612 C400.996399,824.651536 402.531467,823.083405 402.910791,821.088139 C403.290114,819.092872 402.438904,817.063871 400.754458,815.948163 L400.781526,815.839032 Z" id="Path"></path>
            <path d="M309.627524,810.283378 C306.984033,809.363339 304.096113,810.756805 303.161658,813.403259 L298.291623,827.208045 C297.842251,828.478475 297.914516,829.876041 298.492503,831.092981 C299.070491,832.309921 300.106802,833.246436 301.373227,833.696294 C301.920797,833.893046 302.497514,833.995721 303.079115,833.999999 C303.831669,834.000341 304.574622,833.830474 305.252747,833.503027 C306.477598,832.937601 307.414048,831.887945 307.839093,830.604022 L312.709128,816.799237 C313.162683,815.534371 313.083205,814.138684 312.489013,812.933897 C311.928046,811.701039 310.897008,810.746017 309.627524,810.283378 L309.627524,810.283378 Z" id="Path"></path>
            <path d="M226.949099,812.145129 C225.618465,811.818111 224.210763,812.049119 223.057266,812.78379 L210.429808,820.53103 C209.27092,821.25468 208.446083,822.401923 208.133907,823.724337 C207.823915,825.046391 208.057093,826.436443 208.781987,827.587749 C209.50688,828.739055 210.663905,829.556982 211.997741,829.861039 C212.383674,829.948412 212.777861,829.994952 213.173691,829.999879 C214.162078,830.006559 215.132393,829.737112 215.97357,829.222378 L228.573029,821.475138 C230.984734,819.97402 231.722565,816.823793 230.224958,814.422095 C229.496497,813.247411 228.311025,812.42342 226.949099,812.145129 Z" id="Path"></path>
            <path d="M133.298407,813.007422 C132.078376,811.41319 129.959353,810.673733 127.935258,811.135889 C125.911162,811.598045 124.383522,813.170136 124.068872,815.114777 C123.84369,816.385873 124.175904,817.688802 124.989037,818.723623 L133.716664,830.024313 L133.716664,830.024313 C134.687875,831.272148 136.231863,832.006349 137.871349,831.999959 C138.951168,831.989759 140.001903,831.668072 140.882798,831.077991 C141.991522,830.316697 142.733951,829.169853 142.946198,827.890617 C143.141366,826.616857 142.80108,825.321524 141.99815,824.281771 L133.298407,813.007422 Z" id="Path"></path>
            <path d="M47.6612141,809.003776 C46.3907908,809.04019 45.1859864,809.615044 44.3120812,810.601762 C43.438176,811.58848 42.9668268,812.906156 43.0018179,814.264656 L43.4183002,829.017389 C43.4751069,831.797937 45.6070472,834.015777 48.2078472,833.999915 L48.3379979,833.999915 C49.6130709,833.963592 50.8219246,833.384891 51.6965817,832.392099 C52.5712389,831.399306 53.0394398,830.074442 52.9973942,828.7112 L52.606942,813.986303 C52.5799601,812.620297 52.0409317,811.323147 51.110941,810.386237 C50.1809502,809.449326 48.9379692,808.951208 47.6612141,809.003776 L47.6612141,809.003776 Z" id="Path"></path>
        </g>
    </g>
</svg>