<svg xmlns="http://www.w3.org/2000/svg" viewBox="0 0 110 14.04"><defs><style>.cls-1{fill:#ff6700;}</style></defs><title>mundonick_logo</title><g id="Layer_2" data-name="Layer 2"><g id="Logos"><path class="cls-1" d="M58.29,4.57A4.75,4.75,0,0,0,53.56,9.3v4.32h3.6V9.38a2.52,2.52,0,0,1,.33-1.31,1,1,0,0,1,.8-.54,1,1,0,0,1,.81.54,2.52,2.52,0,0,1,.33,1.31v4.24H63V9.3a4.75,4.75,0,0,0-4.74-4.73"/><path class="cls-1" d="M66.89,3.41A2,2,0,0,0,67.48,2,2,2,0,0,0,66.89.58a2,2,0,0,0-2.82,0A2,2,0,0,0,63.48,2a2,2,0,0,0,.59,1.41l.44.44c.74.74.79.93.09,1.63l-.4.4a1.8,1.8,0,0,0-.53,1.28v6.46H67.3V7.16a1.81,1.81,0,0,0-.54-1.28l-.4-.4c-.7-.7-.65-.89.09-1.63Z"/><path class="cls-1" d="M73.33,10.81c-.22.39-.49.62-.81.62s-.59-.23-.81-.62a3.3,3.3,0,0,1-.33-1.5,3.37,3.37,0,0,1,.33-1.51c.22-.39.49-.62.81-.62s.59.23.81.62a3,3,0,0,1,.3,1.06h3.6A4.74,4.74,0,0,0,75.86,6a4.74,4.74,0,0,0-6.69,0,4.73,4.73,0,0,0,6.42,7,4.67,4.67,0,0,0,1.64-3.16h-3.6A2.94,2.94,0,0,1,73.33,10.81Z"/><path class="cls-1" d="M86.73,13a.6.6,0,0,0-.09-.33l-2-3L86,7.22A1.79,1.79,0,1,0,82.94,5.4L81.31,8.3V6.37a1.8,1.8,0,1,0-3.59,0v7.25h3.59V10.78l1.9,2.84h2.9A.62.62,0,0,0,86.73,13Z"/><path class="cls-1" d="M88.31,12.2a.84.84,0,0,1,.87.85v0a.87.87,0,0,1-1.74,0v0A.84.84,0,0,1,88.31,12.2Z"/><path class="cls-1" d="M92,13.88a2.69,2.69,0,0,1-2.75-2.72v0A2.71,2.71,0,0,1,92,8.39a2.58,2.58,0,0,1,2.1.88l-.91,1A1.56,1.56,0,0,0,92,9.68a1.35,1.35,0,0,0-1.28,1.44v0a1.35,1.35,0,0,0,1.34,1.45A1.66,1.66,0,0,0,93.3,12l.87.89A2.65,2.65,0,0,1,92,13.88Z"/><path class="cls-1" d="M97,13.88a2.74,2.74,0,0,1-2.84-2.72v0a2.86,2.86,0,0,1,5.71,0v0A2.77,2.77,0,0,1,97,13.88Zm1.39-2.74A1.4,1.4,0,0,0,97,9.68a1.36,1.36,0,0,0-1.37,1.44v0A1.4,1.4,0,0,0,97,12.59a1.35,1.35,0,0,0,1.37-1.43Z"/><path class="cls-1" d="M106.82,13.77V10.82c0-.71-.32-1.07-.88-1.07s-.91.36-.91,1.07v2.95h-1.49V10.82c0-.71-.32-1.07-.88-1.07s-.91.36-.91,1.07v2.95h-1.49V8.49h1.49v.75a1.88,1.88,0,0,1,1.56-.85,1.58,1.58,0,0,1,1.49.84,2.14,2.14,0,0,1,1.73-.84c1.11,0,1.78.67,1.78,1.94v3.44Z"/><path class="cls-1" d="M108.78,9h-.21V8.89h.55V9h-.21v.6h-.13Zm.5-.12h0l.34.38.34-.38h0V9.6h-.13V9.15l-.22.27h0l-.23-.27V9.6h-.12Z"/><path class="cls-1" d="M20.15,13.92a4.64,4.64,0,0,0,4.64-4.65V5H21.27V9.2a2.6,2.6,0,0,1-.33,1.28,1,1,0,0,1-.79.53,1,1,0,0,1-.79-.53A2.41,2.41,0,0,1,19,9.2V5H15.5V9.27a4.64,4.64,0,0,0,4.65,4.65"/><path class="cls-1" d="M29.92,4.78A4.63,4.63,0,0,0,25.3,9.41v4.22h3.51V9.48a2.44,2.44,0,0,1,.32-1.27.85.85,0,0,1,1.58,0A2.44,2.44,0,0,1,31,9.48v4.15h3.51V9.41a4.63,4.63,0,0,0-4.62-4.63"/><path class="cls-1" d="M13.62,6.14a4.61,4.61,0,0,0-6.15-.35A4.62,4.62,0,0,0,0,9.42v4.24H3.5V9.49a2.59,2.59,0,0,1,.33-1.27,1,1,0,0,1,.79-.53,1,1,0,0,1,.78.53,2.4,2.4,0,0,1,.33,1.27v4.17h3.5v0h0V9.48a2.35,2.35,0,0,1,.33-1.27.94.94,0,0,1,.78-.53,1,1,0,0,1,.79.53,2.53,2.53,0,0,1,.33,1.27v4.15H15V9.41A4.64,4.64,0,0,0,13.62,6.14Z"/><path class="cls-1" d="M48.51,4.8a4.59,4.59,0,1,0,4.58,4.59A4.6,4.6,0,0,0,48.51,4.8Zm0,6.65c-.61,0-1.11-.92-1.11-2.06s.5-2.07,1.11-2.07,1.1.93,1.1,2.07S49.12,11.45,48.51,11.45Z"/><path class="cls-1" d="M42.26,6.27a4.28,4.28,0,0,0-3-1.26H35.36v8.58h3.86a4.29,4.29,0,0,0,3-7.33ZM40,10.67a1,1,0,0,1-.74.57h-.53V7.37h.53c.3,0,.54.21.74.57a3.26,3.26,0,0,1,0,2.73Z"/></g></g></svg>