<?xml version="1.0" encoding="UTF-8" standalone="no"?>
<!DOCTYPE svg PUBLIC "-//W3C//DTD SVG 20010904//EN" "http://www.w3.org/TR/2001/REC-SVG-20010904/DTD/svg10.dtd">
<svg version="1.0" xmlns="http://www.w3.org/2000/svg" width="700.000000pt" height="700.000000pt" viewBox="0 0 700.000000 700.000000" preserveAspectRatio="xMidYMid meet">
<metadata>
Created by potrace 1.11, written by Peter Selinger 2001-2013
</metadata>
<g transform="translate(0.000000,700.000000) scale(0.100000,-0.100000)" fill="#000000" stroke="none">
<path d="M3155 6882 c-15 -81 -20 -92 -39 -93 -11 -1 -32 -3 -46 -5 -14 -1 -47 -4 -73 -5 -53 -2 -55 0 46 -60 75 -44 71 -30 41 -149 -7 -30 -11 -56 -8 -59 2 -3 23 13 47 35 90 85 76 82 161 30 42 -25 76 -42 76 -37 0 5 -15 42 -34 83 l-34 74 27 23 c14 13 46 41 70 63 l44 39 -54 -6 c-30 -3 -71 -8 -92 -11 l-37 -6 -28 64 c-15 34 -33 74 -38 88 -9 21 -13 13 -29 -68z"/>
<path d="M3790 6889 c-40 -94 -29 -88 -153 -76 l-68 7 68 -61 c37 -33 67 -67 65 -75 -2 -8 -16 -44 -33 -81 -16 -36 -28 -67 -27 -69 2 -1 35 17 73 42 39 24 72 44 75 44 3 0 34 -25 69 -55 36 -30 66 -53 68 -51 3 2 -17 90 -33 147 -3 12 16 29 72 62 67 40 74 47 53 51 -23 5 -102 14 -141 15 -12 1 -18 9 -19 24 0 12 -8 53 -17 91 l-17 68 -35 -83z"/>
<path d="M2530 6751 l0 -89 -47 -11 c-119 -30 -127 -32 -112 -42 8 -5 39 -16 69 -25 81 -25 85 -30 82 -126 l-2 -83 22 26 c23 26 68 83 80 102 4 7 37 -1 93 -21 l87 -32 -17 27 c-10 16 -33 50 -51 77 l-33 49 47 59 c25 33 50 61 54 64 4 3 8 9 8 14 0 5 -35 -2 -77 -16 -43 -13 -83 -24 -89 -24 -6 0 -32 32 -58 70 -25 39 -48 70 -51 70 -3 0 -5 -40 -5 -89z"/>
<path d="M4416 6772 c-45 -66 -52 -73 -75 -67 -14 4 -33 8 -41 10 -8 2 -37 10 -63 19 l-48 14 17 -26 c10 -15 24 -33 31 -40 7 -8 25 -29 39 -47 l26 -34 -41 -60 c-63 -92 -62 -93 21 -61 40 16 78 29 83 29 6 0 34 -31 64 -69 30 -39 55 -70 56 -70 1 0 0 42 -2 93 l-4 92 73 24 c40 14 77 28 81 32 5 3 -30 17 -77 29 l-85 23 -3 91 -3 91 -49 -73z"/>
<path d="M1934 6580 c3 -19 8 -55 12 -80 3 -25 7 -51 9 -58 3 -8 -25 -27 -77 -51 -44 -21 -77 -40 -72 -43 5 -3 34 -9 64 -13 102 -14 109 -17 111 -60 1 -19 6 -59 14 -100 2 -11 4 -24 4 -30 1 -5 20 26 42 70 22 44 42 81 43 82 3 3 126 -16 149 -23 32 -10 17 16 -40 71 l-58 54 43 81 c24 44 41 80 37 80 -3 0 -40 -18 -82 -40 l-76 -41 -65 68 -64 68 6 -35z"/>
<path d="M5005 6545 l-60 -64 -78 40 c-42 22 -77 36 -77 32 0 -4 17 -41 37 -80 l38 -73 -65 -65 c-35 -36 -62 -65 -60 -65 3 0 43 7 89 15 47 8 86 14 87 12 1 -1 20 -37 42 -81 44 -87 43 -88 57 29 4 28 10 57 14 64 4 7 41 17 82 23 41 6 77 13 81 17 5 4 -26 23 -68 41 l-75 35 5 50 c3 28 8 69 12 93 3 23 4 42 2 42 -1 -1 -30 -30 -63 -65z"/>
<path d="M1596 6214 c-38 -29 -74 -51 -80 -47 -6 4 -38 26 -70 50 -33 23 -62 41 -64 38 -2 -2 7 -34 21 -72 15 -37 27 -73 29 -80 2 -6 -31 -37 -72 -68 l-75 -56 94 3 95 3 27 -79 c16 -43 30 -80 33 -83 2 -3 10 15 16 38 6 24 18 63 27 86 l15 42 89 3 89 3 -66 45 c-36 25 -70 47 -75 50 -5 3 3 43 17 89 14 46 24 84 22 86 -2 2 -34 -21 -72 -51z"/>
<path d="M5335 6251 c7 -22 45 -155 45 -157 0 -1 -33 -23 -72 -50 l-73 -49 89 -5 89 -5 27 -85 c20 -64 28 -80 33 -65 4 11 18 49 30 85 l22 65 94 -3 94 -3 -64 48 c-35 26 -69 52 -75 58 -8 8 -3 31 17 85 16 41 28 78 27 82 -2 4 -35 -15 -74 -42 l-70 -49 -60 46 c-32 25 -65 51 -73 57 -11 9 -13 7 -6 -13z"/>
<path d="M3329 6256 c-2 -2 -42 -6 -89 -10 -346 -27 -744 -149 -1066 -327 -565 -313 -1011 -821 -1238 -1407 -59 -153 -121 -365 -140 -477 -46 -272 -59 -494 -42 -735 8 -112 18 -184 52 -365 11 -62 44 -183 79 -288 40 -124 114 -307 124 -306 3 0 43 44 89 97 94 110 131 154 170 197 15 17 52 60 82 95 30 36 57 67 60 70 3 3 48 55 100 115 52 61 99 115 105 121 5 6 33 37 60 70 28 32 97 113 155 179 58 66 129 149 159 183 36 42 73 73 111 92 41 21 67 43 91 78 111 162 357 501 379 521 14 13 57 52 96 88 68 61 142 165 301 425 18 29 62 77 98 108 48 40 101 107 202 249 128 180 144 198 223 256 l86 63 94 -69 c52 -38 106 -77 119 -86 13 -10 37 -27 53 -38 47 -32 165 -271 232 -470 32 -93 60 -177 63 -185 3 -8 23 -66 44 -128 29 -87 62 -155 145 -297 l108 -184 150 -67 c83 -37 156 -70 161 -73 6 -4 41 -20 78 -36 l68 -28 214 -434 c183 -370 222 -458 267 -596 55 -172 55 -171 159 -259 30 -26 65 -66 77 -90 12 -24 44 -83 72 -133 27 -49 62 -113 77 -142 15 -29 28 -51 29 -50 46 59 181 307 234 431 99 233 184 538 204 731 4 33 10 87 13 120 14 130 6 533 -12 605 -2 8 -6 38 -10 65 -15 124 -76 362 -130 509 -96 263 -225 499 -400 731 -88 118 -350 392 -430 451 -22 16 -42 32 -45 35 -10 12 -157 117 -225 161 -342 220 -744 367 -1130 413 -27 4 -61 9 -75 11 -29 6 -445 15 -451 10z"/>
<path d="M1170 5873 c-1 -5 -24 -34 -53 -66 l-52 -58 -79 36 c-43 20 -80 34 -82 32 -2 -2 17 -36 41 -77 52 -83 56 -61 -33 -160 -23 -24 -40 -46 -39 -47 2 -1 41 6 89 16 l85 18 24 -41 c13 -23 33 -58 44 -78 10 -21 20 -36 21 -35 4 4 13 81 16 125 1 27 8 46 17 52 13 6 119 32 143 34 24 3 6 15 -64 45 l-80 35 7 60 c3 34 7 73 9 89 2 15 -1 27 -5 27 -5 0 -9 -3 -9 -7z"/>
<path d="M5813 5873 c3 -5 8 -44 11 -89 l7 -81 -80 -34 c-44 -19 -74 -37 -68 -41 10 -5 55 -15 146 -32 8 -1 15 -11 17 -22 4 -31 13 -127 14 -149 0 -12 20 14 47 63 36 64 51 81 64 77 10 -3 26 -8 36 -10 10 -2 40 -8 67 -15 27 -6 50 -9 51 -8 2 2 -23 32 -56 67 l-59 65 27 45 c15 25 35 61 46 79 10 17 17 32 14 32 -2 0 -38 -16 -80 -35 -42 -19 -78 -35 -80 -35 -2 0 -29 29 -58 65 -30 36 -58 65 -62 65 -5 0 -6 -3 -4 -7z"/>
<path d="M735 5336 c-26 -42 -50 -76 -54 -76 -3 0 -40 9 -81 20 -41 11 -79 20 -84 20 -4 0 19 -30 51 -67 35 -39 58 -74 55 -82 -3 -8 -22 -42 -43 -75 -21 -33 -36 -62 -34 -64 2 -2 34 10 72 26 37 17 73 32 79 34 6 2 37 -28 69 -66 l57 -70 -4 94 -3 94 79 31 c43 18 75 34 70 37 -5 3 -43 13 -85 22 -86 19 -83 15 -88 126 -1 36 -4 66 -6 68 -1 2 -24 -31 -50 -72z"/>
<path d="M6218 5398 c-3 -7 -6 -35 -8 -63 -1 -27 -3 -61 -4 -75 -2 -20 -10 -27 -46 -37 -25 -8 -61 -16 -80 -19 -59 -10 -56 -16 26 -49 l79 -32 -3 -93 -3 -93 50 59 c28 33 51 62 51 67 0 10 37 9 58 -2 9 -5 35 -17 57 -26 22 -9 48 -21 59 -26 21 -12 23 -17 -41 84 l-44 68 62 70 c33 38 57 69 52 69 -4 0 -24 -5 -43 -10 -19 -6 -48 -13 -65 -16 -16 -2 -38 -7 -47 -10 -13 -4 -28 14 -61 71 -25 41 -47 70 -49 63z"/>
<path d="M3628 4771 l4 -329 -88 -257 c-50 -150 -83 -260 -77 -264 5 -3 57 -37 116 -75 59 -37 107 -72 107 -76 0 -7 -103 -287 -119 -325 -22 -49 -281 -753 -281 -763 0 -6 16 -20 35 -32 19 -12 35 -25 35 -29 0 -4 -47 -114 -104 -244 l-103 -236 76 -82 c42 -45 104 -111 137 -147 l62 -65 186 0 c102 0 188 2 192 5 3 4 -6 41 -19 85 -14 43 -24 80 -22 82 3 3 144 -47 220 -79 11 -4 36 -13 55 -20 19 -7 44 -16 55 -20 11 -5 76 -30 145 -56 l125 -47 336 -1 337 -1 -19 37 c-11 21 -47 88 -82 150 -48 86 -71 142 -96 233 -18 66 -37 133 -42 149 -5 16 -8 30 -7 32 2 1 82 -100 179 -225 l175 -226 221 -1 221 -1 -13 31 c-8 17 -38 81 -68 141 -49 98 -65 119 -147 199 -66 64 -99 105 -117 145 -38 82 -248 551 -366 816 l-102 230 -115 37 -115 37 -37 -40 c-22 -24 -44 -39 -54 -37 -12 2 -28 36 -54 114 -42 123 -39 117 -212 409 -69 116 -132 233 -142 260 -42 126 -138 421 -140 430 -2 6 -6 17 -9 25 -3 8 -15 44 -26 80 -19 59 -31 75 -129 173 -58 59 -109 107 -112 107 -4 0 -4 -148 -2 -329z"/>
<path d="M459 4843 c-5 -16 -17 -48 -26 -73 -9 -25 -22 -49 -28 -55 -7 -6 -46 -8 -93 -5 -44 3 -78 2 -76 -2 4 -6 109 -88 132 -103 1 -1 -11 -39 -28 -84 -16 -45 -30 -84 -30 -87 0 -3 34 18 76 47 84 56 71 57 139 -4 26 -24 75 -59 75 -55 0 2 -11 41 -24 86 -27 93 -31 84 62 141 58 37 65 50 25 49 -16 0 -53 0 -84 1 l-56 1 -23 85 c-13 47 -25 85 -27 85 -2 0 -8 -12 -14 -27z"/>
<path d="M6520 4858 c0 -7 -10 -45 -22 -85 l-22 -73 -60 -1 c-34 -1 -73 -2 -88 -2 -16 0 -28 -2 -28 -3 0 -2 33 -26 74 -53 l74 -50 -24 -82 c-13 -46 -22 -84 -21 -86 2 -1 34 22 71 53 l67 55 74 -50 c41 -27 75 -46 75 -41 0 5 -13 43 -29 84 l-29 75 42 34 c22 19 54 42 71 53 l29 19 -94 5 -93 5 -26 77 c-23 70 -41 98 -41 66z"/>
<path d="M266 4269 c-3 -13 -7 -37 -10 -54 -14 -106 -13 -103 -75 -110 -31 -4 -71 -10 -89 -14 l-34 -6 77 -40 c42 -21 78 -42 80 -46 3 -3 -2 -41 -10 -84 -8 -42 -15 -81 -15 -87 0 -5 28 18 62 51 35 34 67 61 72 61 5 0 42 -18 82 -40 l73 -40 -14 33 c-8 17 -25 55 -39 82 l-25 50 67 64 67 64 -50 -7 c-27 -4 -69 -9 -92 -13 l-43 -5 -39 82 c-33 68 -41 78 -45 59z"/>
<path d="M6695 4216 c-21 -43 -45 -80 -52 -83 -8 -3 -50 1 -94 9 l-80 15 66 -67 67 -67 -42 -83 -42 -83 76 42 c41 22 79 41 85 41 5 0 38 -28 72 -62 l61 -62 -6 39 c-5 39 -10 63 -21 117 -6 25 -1 29 75 68 44 24 79 44 78 45 -2 2 -41 9 -88 15 -47 6 -87 13 -88 15 -2 2 -9 43 -15 92 l-12 88 -40 -79z"/>
<path d="M2765 3774 c-38 -52 -84 -105 -102 -117 -22 -14 -81 -97 -173 -240 -133 -208 -139 -220 -127 -244 13 -24 5 -45 -118 -322 -73 -163 -141 -316 -153 -341 -11 -25 -18 -49 -15 -53 12 -20 196 215 292 374 72 119 88 138 125 156 39 19 48 32 111 155 37 73 80 156 95 183 17 32 30 74 34 115 4 36 9 88 12 115 3 28 26 100 51 160 65 158 64 155 50 155 -6 0 -43 -43 -82 -96z"/>
<path d="M174 3583 l1 -87 -77 -26 c-42 -14 -79 -28 -82 -31 -3 -3 32 -16 79 -30 l85 -23 0 -95 0 -94 52 74 c28 41 52 76 54 78 1 1 38 -9 81 -23 43 -14 82 -26 86 -26 4 0 -15 30 -43 66 -27 37 -50 72 -50 79 0 7 22 42 50 79 27 36 47 66 44 66 -3 0 -42 -13 -87 -29 l-82 -29 -50 69 c-28 38 -53 69 -56 69 -4 0 -6 -39 -5 -87z"/>
<path d="M6767 3601 l-49 -69 -81 28 c-44 16 -82 28 -84 26 -1 -1 20 -34 47 -73 l50 -71 -56 -71 c-30 -39 -51 -71 -46 -71 5 0 42 11 82 25 40 14 77 25 80 25 4 0 30 -34 59 -76 l51 -76 1 44 c0 23 1 65 2 93 l2 49 85 27 c50 16 79 29 70 33 -8 3 -46 17 -85 29 l-70 24 2 86 c0 48 -2 87 -5 87 -4 0 -29 -31 -55 -69z"/>
<path d="M2105 3387 c-176 -202 -201 -237 -404 -566 -194 -314 -244 -407 -173 -325 15 17 92 126 172 241 105 153 155 217 181 232 47 27 58 41 116 151 28 52 74 137 102 189 28 52 51 96 51 98 0 11 -28 -1 -45 -20z"/>
<path d="M6740 3000 c-36 -33 -70 -60 -75 -60 -6 0 -19 6 -30 14 -26 17 -112 66 -119 66 -2 0 12 -37 32 -81 l37 -82 -63 -56 c-34 -31 -62 -59 -62 -62 0 -3 39 0 86 6 l86 12 34 -75 c19 -41 34 -80 35 -86 1 -16 17 26 22 60 3 16 8 48 12 70 7 38 10 42 44 48 20 3 54 6 76 6 70 1 69 13 -1 50 -36 19 -70 41 -76 48 -7 8 -5 37 9 97 11 47 20 85 19 85 -1 0 -30 -27 -66 -60z"/>
<path d="M200 3044 c0 -3 7 -37 16 -75 9 -38 13 -76 11 -84 -3 -7 -38 -30 -77 -50 -39 -21 -69 -39 -67 -41 5 -5 104 -19 159 -23 12 -1 19 -19 29 -73 7 -40 13 -76 13 -80 2 -19 17 -18 25 3 35 92 63 140 79 135 9 -3 44 -8 77 -12 33 -3 63 -8 68 -11 4 -2 7 0 7 5 0 5 -29 34 -64 65 l-63 57 37 77 c21 43 36 80 34 82 -2 2 -35 -15 -74 -38 -39 -23 -75 -41 -80 -39 -5 2 -33 27 -63 56 -52 49 -67 59 -67 46z"/>
<path d="M2729 2777 c-24 -45 -49 -91 -56 -102 -6 -11 -19 -33 -27 -50 -17 -34 -75 -138 -113 -203 -20 -36 -39 -96 -78 -255 -2 -9 -6 -21 -9 -26 -3 -4 5 -13 18 -19 20 -9 29 -3 92 72 96 112 112 136 119 176 3 19 8 42 10 50 2 8 6 26 9 40 23 120 41 179 104 342 9 21 7 29 -7 42 -16 15 -20 10 -62 -67z"/>
<path d="M553 2413 l-63 -55 -79 50 -79 50 35 -86 35 -86 -29 -26 c-16 -14 -42 -36 -59 -50 -35 -30 -51 -52 -32 -46 7 3 47 7 89 10 l76 6 28 -73 c15 -39 31 -76 35 -80 4 -5 16 25 26 67 10 42 20 80 23 85 4 5 44 12 91 16 47 4 86 8 87 9 2 1 -31 22 -72 47 -41 24 -75 51 -75 59 0 14 18 88 34 138 11 33 -3 27 -71 -35z"/>
<path d="M6391 2398 c10 -40 19 -80 19 -88 0 -9 -33 -35 -75 -60 -41 -24 -73 -45 -72 -46 1 -1 40 -5 87 -9 47 -4 88 -10 91 -13 3 -4 14 -42 24 -85 10 -43 21 -75 25 -70 4 4 20 41 35 81 l28 72 86 -6 c47 -3 91 -8 96 -11 6 -2 -7 10 -27 27 -21 17 -54 46 -75 64 l-36 33 28 69 c16 38 33 75 38 82 17 22 -5 13 -80 -34 l-74 -46 -63 56 c-35 31 -66 56 -69 56 -3 0 3 -33 14 -72z"/>
<path d="M1345 2075 c-38 -7 -90 -19 -115 -26 -25 -7 -52 -14 -60 -15 -25 -5 -143 -57 -180 -79 -19 -12 -42 -24 -50 -27 -8 -3 -45 -31 -82 -62 -116 -96 -189 -211 -212 -333 -13 -70 -13 -89 -3 -158 19 -131 123 -232 258 -250 140 -19 250 7 322 77 44 44 64 83 73 145 7 56 -9 83 -50 83 -33 0 -52 -28 -55 -80 -5 -81 -48 -152 -113 -186 -42 -22 -144 -22 -187 1 -78 40 -121 120 -126 234 -12 309 235 562 617 631 63 12 232 15 278 5 14 -3 41 -8 60 -11 86 -16 192 -82 236 -148 53 -77 68 -228 33 -326 -16 -46 -69 -128 -105 -164 -70 -69 -200 -132 -257 -124 l-23 3 41 130 c23 72 46 141 52 155 6 14 21 47 33 75 11 27 37 75 56 106 18 31 34 62 34 69 0 27 -113 -67 -182 -152 -45 -54 -131 -191 -151 -239 -8 -19 -36 -79 -62 -134 -26 -55 -53 -113 -61 -130 -53 -123 -150 -313 -192 -376 -64 -98 -144 -177 -221 -218 -79 -42 -98 -46 -207 -46 -84 1 -96 3 -140 30 -70 43 -97 99 -95 205 1 69 -1 81 -18 90 -35 18 -68 12 -91 -17 -19 -24 -21 -37 -17 -90 12 -169 153 -268 378 -264 367 5 642 235 795 663 15 40 27 74 28 75 1 1 37 9 81 18 257 53 419 155 498 314 29 59 32 73 30 149 -1 72 -5 92 -32 147 -36 73 -98 133 -181 175 -59 30 -169 65 -235 76 -73 12 -329 11 -400 -1z"/>
<path d="M6244 1524 c-13 -30 -35 -79 -48 -109 -23 -52 -27 -55 -60 -55 -25 0 -38 -6 -46 -19 -15 -29 -13 -30 25 -27 19 1 35 1 35 -2 0 -15 -135 -291 -164 -334 -67 -100 -130 -156 -161 -144 -21 8 -13 32 69 210 41 90 79 181 84 203 30 134 -116 168 -247 58 -36 -31 -36 -30 -16 19 8 20 13 36 10 37 -34 5 -138 0 -144 -7 -5 -5 -34 -67 -66 -139 -68 -153 -90 -194 -135 -261 -49 -70 -81 -105 -109 -116 -42 -15 -45 13 -11 87 51 111 186 435 181 436 -3 1 -38 2 -78 3 l-72 2 -67 -154 c-104 -237 -183 -356 -251 -376 -46 -14 -36 27 55 225 134 291 134 291 129 296 -5 5 -64 7 -117 4 -32 -2 -37 -7 -63 -61 -31 -66 -71 -101 -117 -102 -38 -1 -56 15 -64 56 -28 149 -243 157 -385 15 -55 -55 -123 -171 -146 -248 -14 -47 -90 -146 -132 -172 -65 -41 -69 -4 -12 118 84 181 97 209 113 258 21 59 14 108 -17 130 -49 34 -162 4 -240 -64 -32 -29 -36 -30 -32 -11 5 25 -11 71 -28 82 -23 15 -98 8 -137 -12 -22 -11 -55 -34 -75 -51 -40 -36 -43 -33 -15 21 15 29 17 40 8 41 -7 0 -40 1 -74 2 l-61 2 -78 -173 c-94 -210 -154 -304 -217 -346 -54 -35 -59 7 -13 109 94 208 161 375 155 384 -20 33 -197 37 -282 7 -25 -10 -93 -48 -150 -87 -136 -91 -150 -91 -103 1 44 86 28 121 -44 100 -35 -10 -94 -50 -124 -85 -15 -18 -15 -14 3 28 14 33 16 47 7 48 -7 1 -37 2 -69 3 l-56 3 -73 -170 c-39 -93 -92 -199 -116 -235 -67 -100 -140 -161 -144 -119 -3 32 9 67 97 267 52 118 94 220 94 226 0 31 -168 50 -245 28 -157 -46 -274 -153 -361 -331 -37 -74 -46 -105 -49 -156 -3 -58 -1 -68 23 -97 53 -63 155 -48 243 37 l36 34 7 -40 c8 -54 41 -76 97 -67 47 8 79 26 132 75 l38 36 -20 -48 c-12 -27 -21 -51 -21 -53 0 -3 34 -4 76 -2 l76 3 44 100 c24 55 48 109 54 120 5 11 27 58 48 105 44 95 95 170 116 170 11 0 12 -6 1 -37 -11 -31 -11 -42 -1 -58 17 -26 64 -30 110 -11 25 11 34 11 29 3 -4 -7 -21 -34 -38 -62 -81 -128 -100 -261 -46 -316 24 -24 38 -29 76 -29 56 0 93 18 158 78 27 26 48 40 47 32 -9 -60 29 -110 84 -110 51 0 81 14 139 67 28 27 47 41 40 33 -6 -8 -18 -32 -26 -52 l-16 -38 78 0 79 0 72 168 c81 185 97 216 145 282 61 83 132 116 128 60 0 -14 -49 -132 -107 -262 -58 -131 -106 -240 -106 -243 0 -3 35 -5 79 -5 l78 0 28 63 c34 77 63 141 82 187 83 192 160 296 215 288 39 -5 37 -12 -72 -243 -66 -139 -71 -153 -77 -193 -8 -55 4 -82 43 -98 76 -32 152 4 252 119 17 21 32 34 33 30 0 -4 3 -19 6 -33 2 -14 6 -31 7 -38 4 -25 56 -70 93 -83 51 -16 140 -6 199 24 108 55 213 212 239 357 l6 35 59 0 c32 1 57 -2 55 -5 -14 -23 -97 -210 -110 -246 -23 -68 -20 -120 10 -149 49 -50 142 -24 230 64 l50 49 0 -53 c0 -63 19 -84 73 -85 47 0 94 22 148 72 26 24 42 34 36 23 -6 -11 -18 -35 -27 -52 l-16 -33 81 0 80 0 26 58 c147 328 195 418 249 460 32 25 73 29 81 7 3 -8 -27 -83 -66 -167 -78 -164 -110 -245 -110 -278 0 -29 26 -76 45 -84 60 -23 138 8 223 88 31 28 52 45 48 38 -14 -23 -14 -106 -1 -138 44 -107 198 -99 314 18 65 64 97 116 82 131 -10 9 -17 6 -34 -18 -101 -139 -212 -186 -230 -96 -9 44 14 112 116 344 l91 207 52 0 c45 0 52 3 62 25 12 25 12 25 -34 22 -25 -2 -47 -1 -49 3 -2 3 14 46 35 95 61 135 63 124 -26 123 l-76 -1 -24 -53z m-3960 -213 c6 -9 -54 -145 -120 -276 -70 -137 -132 -205 -185 -205 -31 0 -33 6 -29 65 5 76 102 255 182 337 26 27 67 57 90 68 49 22 55 23 62 11z m976 -1 c0 -23 -143 -320 -181 -378 -56 -82 -111 -118 -148 -95 -53 33 62 288 183 406 55 54 146 95 146 67z m1403 1 c29 -3 21 -90 -19 -211 -27 -83 -113 -245 -150 -282 -56 -58 -104 -48 -105 23 -2 140 180 487 249 474 9 -2 21 -4 25 -4z"/>
<path d="M1497 402 c-2 -4 -3 -90 -3 -192 l1 -185 40 0 40 0 0 112 c-1 61 2 110 6 107 4 -2 42 -54 84 -114 73 -103 80 -110 111 -110 l34 0 0 193 0 194 -37 -1 -38 -1 -3 -120 -3 -120 -27 42 c-15 23 -52 77 -84 121 -49 68 -60 79 -87 80 -17 0 -32 -2 -34 -6z"/>
<path d="M2130 213 l1 -193 125 0 124 0 0 35 0 35 -85 0 -85 0 0 45 c0 50 -10 45 100 49 44 1 45 2 46 34 0 36 3 35 -83 34 l-63 -1 0 43 0 43 68 -2 c94 -2 102 1 102 40 l0 32 -125 0 -125 -1 0 -193z"/>
<path d="M2670 371 l0 -36 62 0 63 0 3 -157 3 -158 38 0 38 0 1 151 c0 82 3 153 7 157 4 4 25 8 48 8 79 3 77 1 74 37 l-3 32 -167 1 -167 1 0 -36z"/>
<path d="M3266 386 c4 -11 33 -97 64 -191 57 -168 58 -170 88 -173 37 -4 46 10 88 141 15 48 31 87 34 87 3 0 23 -52 44 -115 l39 -115 33 0 c19 0 34 2 34 4 0 2 29 86 65 187 36 101 65 187 65 191 0 7 -78 4 -84 -3 -2 -2 -21 -58 -43 -123 l-41 -120 -39 125 -39 124 -33 0 -33 0 -41 -123 -42 -123 -41 123 -41 123 -42 1 c-38 2 -41 0 -35 -20z"/>
<path d="M4160 394 c-74 -32 -110 -91 -111 -180 -2 -111 79 -194 188 -195 72 0 118 16 153 53 71 74 74 195 8 279 -43 54 -163 76 -238 43z m151 -71 c83 -49 66 -206 -25 -232 -89 -24 -157 33 -152 130 4 97 96 150 177 102z"/>
<path d="M4743 394 c-3 -8 -6 -95 -7 -194 l-1 -180 43 0 42 0 0 71 0 70 32 -3 c26 -2 36 -11 55 -48 44 -82 51 -90 87 -90 18 0 36 3 39 7 4 3 -10 37 -31 75 -34 65 -36 70 -20 82 26 19 46 76 41 116 -11 83 -44 103 -175 106 -78 2 -100 -1 -105 -12z m192 -80 c15 -21 9 -54 -13 -71 -9 -7 -35 -13 -59 -13 -27 0 -43 5 -44 13 0 6 -2 23 -4 37 -5 47 11 62 62 56 26 -3 50 -12 58 -22z"/>
<path d="M5340 213 l-1 -193 41 0 c43 0 42 0 41 65 -1 28 6 48 23 69 l24 28 52 -76 c28 -43 57 -79 65 -82 7 -3 29 -4 48 -2 l35 3 -73 111 -73 112 64 77 c35 42 64 78 64 79 0 1 -22 2 -49 2 -53 -1 -51 0 -126 -94 -22 -28 -43 -51 -48 -52 -4 0 -6 33 -5 73 l2 72 -41 0 -41 1 -2 -193z"/>
</g>
</svg>